<svg xmlns="http://www.w3.org/2000/svg" width="37" height="32" viewBox="0 0 37 32" fill="none"> <path d="M35.8275 11.7571H25.4819C25.3041 11.7571 25.1586 11.9026 25.1586 12.0804V14.0202C25.1586 14.198 25.3041 14.3435 25.4819 14.3435H35.8275C36.0053 14.3435 36.1508 14.198 36.1508 14.0202V12.0804C36.1508 11.9026 36.0053 11.7571 35.8275 11.7571ZM30.4122 17.2532H25.4819C25.3041 17.2532 25.1586 17.3987 25.1586 17.5765V19.5163C25.1586 19.6941 25.3041 19.8396 25.4819 19.8396H30.4122C30.5901 19.8396 30.7355 19.6941 30.7355 19.5163V17.5765C30.7355 17.3987 30.5901 17.2532 30.4122 17.2532ZM16.9265 8.14014H15.1767C14.9261 8.14014 14.7241 8.3422 14.7241 8.59276V18.6151C14.7241 18.7606 14.7928 18.8939 14.91 18.9788L20.9274 23.3676C21.1295 23.5131 21.4123 23.4727 21.5578 23.2706L22.5964 21.8521V21.8481C22.7419 21.646 22.6975 21.3631 22.4954 21.2177L17.3751 17.5159V8.59276C17.3792 8.3422 17.1731 8.14014 16.9265 8.14014Z" fill="#EA5B5B"/> <path d="M30.1616 22.3413H27.8258C27.5995 22.3413 27.3853 22.4585 27.264 22.6525C26.7508 23.4648 26.1527 24.2165 25.4657 24.9035C24.2816 26.0876 22.9035 27.0171 21.3719 27.6637C19.7837 28.3345 18.0985 28.674 16.3607 28.674C14.6189 28.674 12.9337 28.3345 11.3496 27.6637C9.81792 27.0171 8.43985 26.0876 7.25576 24.9035C6.07167 23.7194 5.14218 22.3413 4.49558 20.8097C3.82473 19.2255 3.48527 17.5403 3.48527 15.7985C3.48527 14.0567 3.82473 12.3756 4.49558 10.7874C5.14218 9.25572 6.07167 7.87765 7.25576 6.69356C8.43985 5.50947 9.81792 4.57998 11.3496 3.93338C12.9337 3.26253 14.623 2.92306 16.3607 2.92306C18.1025 2.92306 19.7877 3.26253 21.3719 3.93338C22.9035 4.57998 24.2816 5.50947 25.4657 6.69356C26.1527 7.38058 26.7508 8.13225 27.264 8.94454C27.3853 9.13852 27.5995 9.25572 27.8258 9.25572H30.1616C30.4405 9.25572 30.6183 8.96475 30.493 8.71823C27.8581 3.47672 22.5156 0.0699341 16.5507 0.00123269C7.8175 -0.107881 0.563434 7.04111 0.547269 15.7662C0.531104 24.5074 7.61543 31.5998 16.3567 31.5998C22.3984 31.5998 27.8298 28.1809 30.493 22.8788C30.6183 22.6323 30.4364 22.3413 30.1616 22.3413Z" fill="#EA5B5B"/> </svg>