<svg xmlns="http://www.w3.org/2000/svg" width="62" height="45" viewBox="0 0 62 45" fill="none"> <path fill-rule="evenodd" clip-rule="evenodd" d="M5.8669 0.15327L3.73698 0.280034L2.95566 1.06155L2.17415 1.84287L2.16566 7.48507L2.15717 13.1273L1.35176 13.9005C0.908873 14.3258 0.423535 14.9596 0.273274 15.3091C-0.0448219 16.0486 -0.08372 17.9186 0.197847 18.9318C0.467962 19.9044 1.55474 21.1118 2.6812 21.6914L3.62542 22.1769L13.2157 22.1747L22.8057 22.1726L23.7683 21.6833C26.257 20.4178 27.1528 17.3703 25.8017 14.7659C25.3005 13.8002 25.0891 12.3377 25.422 12.1418C25.5033 12.0938 26.2503 12.0997 27.0816 12.1548L28.5931 12.2551L28.7352 15.7729C28.9455 20.9707 29.0184 21.0427 34.023 21.0024C36.5273 20.9823 37.1807 20.9203 37.3272 20.6885C37.6721 20.1433 37.5147 19.5873 36.7958 18.8093C35.6125 17.5295 34.3567 14.3846 34.3567 12.7016C34.3567 12.3685 34.2272 11.9112 34.069 11.6853C33.8248 11.3366 33.6326 11.289 32.7962 11.3693C32.2544 11.4213 31.5916 11.4088 31.323 11.3413C30.8407 11.2203 30.8339 11.1893 30.7694 8.73415C30.7117 6.54638 30.658 6.21584 30.3206 5.96942C29.8007 5.58992 29.4927 5.61737 29.0255 6.08454C28.69 6.42001 28.6306 6.74265 28.6306 8.22808V9.97652L27.111 10.0914C26.2752 10.1548 25.5199 10.1623 25.4326 10.1084C25.3454 10.0545 25.2739 9.71786 25.2739 9.36047C25.2739 8.58251 24.5903 7.59327 23.0397 6.12719C21.3649 4.54362 21.2508 4.50749 17.9225 4.5061L15.0139 4.50492L14.8899 3.96193C14.3188 1.45961 13.7227 0.472352 12.5858 0.146359C11.8969 -0.0512909 9.25814 -0.0485266 5.8669 0.15327ZM12.1218 2.31833C12.3806 2.4141 12.6059 2.87614 12.8569 3.82608C13.3251 5.59782 13.3197 5.68963 12.7491 5.68963C12.4409 5.68963 12.1178 5.47737 11.8471 5.09728C11.1825 4.16392 10.0701 4.3821 10.0701 5.44598C10.0701 5.99865 10.3613 6.60759 10.9183 7.2191C11.1405 7.46295 11.2848 7.69831 11.2392 7.74215C11.0688 7.90544 8.58068 8.05037 8.36882 7.90939C8.24778 7.82883 7.96542 7.40154 7.74151 6.95984C7.17522 5.84246 6.88496 5.65765 5.60804 5.60098C4.86759 5.5682 4.43636 5.45289 4.32776 5.25879C4.23772 5.09787 4.21738 4.3282 4.28274 3.54846L4.40161 2.13095L8.07501 2.15563C10.0953 2.16926 11.9164 2.24251 12.1218 2.31833ZM21.8765 8.1724L23.3167 9.63907L23.2587 11.0432L23.2006 12.4472L18.758 12.3758C16.3145 12.3365 12.0272 12.3223 9.23089 12.3444L4.1465 12.3843L4.16604 11.1597C4.17671 10.4859 4.24345 9.44616 4.31413 8.84887L4.44268 7.76288L5.19418 7.74175C5.89908 7.72181 5.97471 7.77828 6.41898 8.65497C6.67941 9.16894 7.02002 9.63828 7.17581 9.69811C7.65957 9.88372 11.5875 10.092 12.1139 9.95993C12.4559 9.87404 12.9564 9.31841 13.7054 8.19274L14.7979 6.55072L17.6171 6.62832L20.4363 6.70572L21.8765 8.1724ZM52.4542 6.84058C52.2188 7.10063 52.1274 7.57017 52.1274 8.51893V9.83613H51.1303C50.5819 9.83613 49.8934 9.96191 49.6 10.1155C48.7875 10.5412 47.8484 11.6108 47.4041 12.6165C46.9589 13.6248 46.7136 13.7455 44.0318 14.2784C43.1437 14.4547 42.4524 14.7065 42.3047 14.9069C42.1191 15.1588 40.4777 19.8896 40.4777 20.1726C40.4777 20.3137 41.893 21.7046 42.9052 22.5584C43.9177 23.4122 44.0356 23.5865 43.9288 24.0726C43.7418 24.924 44.1199 25.4349 44.9374 25.4349C45.5429 25.4349 45.6681 25.3474 45.9177 24.7501C46.3209 23.7849 46.2903 22.353 45.8583 21.9666C45.4932 21.6398 44.4925 20.9274 43.5888 20.3507C42.9915 19.9694 42.8809 19.2969 43.2738 18.4346C43.574 17.7757 43.7765 17.7996 44.6159 18.5921C45.0005 18.9553 45.6324 19.4414 46.0202 19.6722C46.6643 20.0557 46.7622 20.0659 47.1555 19.7905C47.8891 19.2765 47.7139 18.5365 46.5987 17.438C46.0557 16.9031 45.6115 16.3998 45.6115 16.3195C45.6115 16.1807 46.8698 15.7623 47.2898 15.7615C47.3984 15.7613 47.9315 16.3116 48.4745 16.9843C50.2348 19.165 50.7588 19.5318 51.5275 19.1203C51.9062 18.9177 52.0255 18.5815 51.9396 17.9589C51.9193 17.811 51.2866 16.9669 50.5341 16.0831C49.7815 15.1993 49.1672 14.343 49.169 14.1801C49.1733 13.7656 49.9898 12.3823 50.3691 12.1461C51.0128 11.7453 51.818 12.2148 53.5096 13.9767C54.4326 14.9381 55.382 15.8215 55.6191 15.9398C55.8565 16.0579 56.7207 16.1546 57.5398 16.1546C59.2378 16.1546 59.4464 16.3175 59.8059 17.9261C59.9925 18.7616 60.431 19.3138 60.9079 19.3138C61.0258 19.3138 61.3298 19.1685 61.5838 18.9906C61.9834 18.7106 62.0332 18.5432 61.9556 17.7366C61.9064 17.2246 61.6655 16.3913 61.4205 15.8849C60.7002 14.3969 59.337 13.783 57.2611 14.0122C56.5404 14.0916 56.2601 13.9104 55.3093 12.7493C54.3286 11.5518 54.2994 11.4795 54.2994 10.2557V8.99538L55.2706 9.12431C55.8047 9.1952 56.5156 9.34862 56.8503 9.46512C57.4513 9.67481 57.4586 9.69396 57.4586 11.0532C57.4586 12.5414 57.6383 13.0639 58.2662 13.3997C58.5782 13.5668 58.779 13.5443 59.1502 13.301C59.611 12.9991 59.6306 12.8976 59.6306 10.8058C59.6306 9.60669 59.5419 8.45989 59.4337 8.2577C59.2132 7.84542 58.0209 7.45723 55.1784 6.87237C52.8505 6.39335 52.8588 6.39355 52.4542 6.84058ZM32.4161 14.246C32.5646 15.2927 33.524 18.0794 33.793 18.2456C33.8858 18.3029 33.9618 18.4778 33.9618 18.6344C33.9618 19.0141 31.2281 19.05 31.1043 18.6721C30.9639 18.2434 30.8383 13.4203 30.9643 13.2945C31.0304 13.2282 31.3536 13.2005 31.6826 13.2329C32.2357 13.2872 32.2909 13.3632 32.4161 14.246ZM22.6535 14.7653C24.7429 15.7137 24.8298 18.6802 22.7984 19.7087C21.9942 20.1159 4.41444 20.2192 3.64754 19.8213C2.52976 19.2414 1.85427 17.693 2.18935 16.4792C2.4028 15.7058 3.28284 14.8177 4.06831 14.5825C4.38285 14.4885 8.50526 14.4058 13.2293 14.3989C21.2929 14.387 21.8696 14.4093 22.6535 14.7653ZM3.73639 16.1394C3.12034 16.7554 3.01865 17.2986 3.38887 17.9941C3.98162 19.1069 5.20998 19.256 6.00472 18.3114C6.56312 17.6477 6.63973 17.1509 6.28629 16.4871C5.70913 15.4037 4.62058 15.2552 3.73639 16.1394ZM9.26505 16.1394C8.91714 16.4873 8.6879 16.9247 8.6879 17.2406C8.6879 17.966 9.67299 18.9189 10.4229 18.9189C11.8223 18.9189 12.5625 17.0495 11.5598 16.047C10.8806 15.3676 10.0015 15.4029 9.26505 16.1394ZM14.7937 16.1394C14.4458 16.4873 14.2166 16.9247 14.2166 17.2406C14.2166 17.9858 15.2013 18.9189 15.9875 18.9189C16.8537 18.9189 17.5732 18.1576 17.5732 17.2406C17.5732 15.686 15.9071 15.026 14.7937 16.1394ZM20.463 15.9716C20.0568 16.2908 19.9427 16.5529 19.9427 17.1652C19.9427 19.0583 22.272 19.6039 22.9967 17.8805C23.6779 16.2602 21.8485 14.8816 20.463 15.9716ZM59.146 21.5429C58.8765 21.9542 58.8937 22.119 59.3348 23.3693C60.059 25.4222 59.9986 26.4908 59.0773 27.9218C58.6642 28.5631 58.1222 29.5118 57.8729 30.0302C57.4424 30.9238 57.4359 30.9983 57.7471 31.4731C58.0018 31.8617 58.2119 31.9603 58.685 31.9131C59.0434 31.8771 59.3842 31.6901 59.5119 31.4593C59.6316 31.2433 60.1177 30.4464 60.5926 29.6884C61.6705 27.967 62 27.0455 62 25.7514C62 24.5874 61.4256 22.3376 60.9387 21.5946C60.5035 20.9302 59.5652 20.9031 59.146 21.5429ZM52.6579 23.0141C51.7688 23.8546 50.9362 24.6421 50.8076 24.7639C50.6791 24.8859 50.146 25.0431 49.6229 25.1136C48.3665 25.2824 47.014 26.1018 45.2659 27.7526C43.7862 29.1499 43.5544 29.668 44.1446 30.2584C44.7162 30.83 45.304 30.6121 46.8149 29.2684C48.806 27.4976 48.9601 27.4084 50.3699 27.2092C51.5544 27.0417 51.6614 26.9777 53.0252 25.623C54.4674 24.1905 54.9281 24.0035 55.3532 24.6784C55.524 24.9499 55.292 25.2765 54.0389 26.5295C53.2021 27.3665 52.4796 28.2401 52.4334 28.4707C52.3874 28.7015 52.2938 29.1509 52.2257 29.4694C52.0871 30.117 51.1038 31.1466 49.7382 32.074C48.6175 32.835 48.4244 33.3995 49.0655 34.0404C49.6606 34.6357 50.1408 34.4865 51.9732 33.1367C53.3192 32.1449 54.0841 31.0433 54.3811 29.6688C54.4684 29.2648 55.1289 28.4505 56.3799 27.2046C58.7855 24.8089 58.7896 24.7487 56.6676 22.8788C55.798 22.1127 54.904 21.4858 54.6804 21.4858C54.4449 21.4858 53.5958 22.1273 52.6579 23.0141ZM1.88409 23.4208C1.12844 23.4536 0.395299 23.5754 0.255108 23.6919C-0.0955669 23.983 -0.0657518 24.9371 0.303484 25.2435C0.544573 25.4435 4.65869 25.502 20.2955 25.5271C31.2324 25.5446 40.4011 25.4799 40.9224 25.3815C41.6646 25.2415 41.8848 25.1087 41.9758 24.7457C42.0392 24.4934 41.9914 24.1009 41.8697 23.8736C41.6705 23.5016 41.4669 23.4591 39.8291 23.4487C31.4275 23.395 2.9685 23.374 1.88409 23.4208ZM9.455 27.5782C7.97648 27.9741 6.62136 28.4199 6.44385 28.5688C5.93127 28.9993 6.05448 29.517 7.10828 31.3584C7.65127 32.3074 8.09554 33.2176 8.09554 33.3817C8.09554 33.5456 7.9441 34.0236 7.75908 34.4442C7.27217 35.5503 7.27296 39.4865 7.76027 40.3919C8.02999 40.8928 8.23336 41.0336 8.68849 41.0336C9.52904 41.0336 9.90875 40.3844 9.67022 39.3552C9.39399 38.164 9.44157 36.4884 9.78415 35.3347L10.0904 34.3032L11.9684 33.3955C13.7283 32.5449 13.8931 32.5021 14.5941 32.712C16.9167 33.408 18.758 36.4014 18.758 39.4814C18.758 40.5263 19.1128 41.0336 19.8439 41.0336C20.7625 41.0336 20.9939 40.5269 20.8519 38.8261C20.5269 34.9274 18.8999 32.3407 15.8858 30.9303C14.7807 30.4132 14.5957 30.247 14.4199 29.6143C14.3092 29.2161 14.2183 28.7319 14.2177 28.5384C14.2172 28.3449 14.0878 27.8783 13.9305 27.5018C13.6722 26.8836 13.5713 26.819 12.8938 26.8378C12.481 26.8492 10.9335 27.1825 9.455 27.5782ZM31.6419 27.6562C31.4279 28.1178 31.0099 29.0423 30.7129 29.7109C30.2485 30.7564 30.0856 30.943 29.5497 31.0437C27.7501 31.3823 25.0383 33.2368 23.315 35.3077C21.8299 37.092 21.7436 38.0998 23.0642 38.2317C23.5174 38.277 23.7703 38.1739 24.0315 37.8368C25.0048 36.582 27.4773 34.3115 28.3431 33.8775C30.2773 32.9078 30.6894 32.8476 32.0112 33.3418C33.1214 33.7571 33.232 33.8578 33.7898 34.9629C34.4594 36.2892 34.8156 38.0128 34.6422 39.0881C34.5334 39.7638 34.4726 39.8163 33.654 39.9391C32.6509 40.0894 32.1847 40.4681 32.1847 41.1323C32.1847 41.6263 32.6501 42.2185 33.0379 42.2181C33.1661 42.2179 34.0234 42.0852 34.9431 41.9235L36.6157 41.6291L37.4687 42.4667L38.3217 43.3043L40.2884 43.3722L42.2548 43.4399L43.6194 42.1227C44.4455 41.3252 45.4555 40.5824 46.1795 40.24C47.0742 39.8169 47.4077 39.5454 47.504 39.1613C47.6588 38.5441 47.1433 37.8743 46.5132 37.8743C45.6405 37.8743 43.3585 39.1827 42.4275 40.2167C41.5305 41.2131 41.4944 41.231 40.3839 41.231C39.3092 41.231 39.2089 41.1872 38.3521 40.3425C37.8563 39.8538 37.3514 39.454 37.2302 39.454C37.0991 39.454 36.9204 38.7113 36.7905 37.6275C36.6544 36.4928 36.376 35.3606 36.0552 34.6381C35.7505 33.9524 35.607 33.3853 35.7051 33.2559C35.7965 33.1355 36.4635 32.2949 37.1874 31.388C38.5498 29.6811 38.7573 29.0741 38.1576 28.5516C37.6616 28.1194 33.6006 26.817 32.749 26.817C32.0967 26.817 31.9952 26.894 31.6419 27.6562ZM20.4018 27.7026C20.18 27.858 19.8001 28.4464 19.5574 29.0103C19.2062 29.8268 19.1594 30.1299 19.3278 30.4995C19.6402 31.1849 20.7615 31.1495 21.28 30.4379C21.8007 29.7229 22.2219 29.9354 22.5441 31.0757C22.8693 32.2266 23.389 32.6326 24.0909 32.2843C24.721 31.9717 24.8154 30.8764 24.332 29.4913C24.0139 28.5801 23.9152 28.4839 22.8922 28.0906C21.2192 27.4473 20.8488 27.3894 20.4018 27.7026ZM12.1084 29.3345C12.1563 29.4159 12.2565 29.7668 12.3311 30.1143C12.4604 30.7181 12.4229 30.7678 11.4722 31.2496C10.9254 31.5267 10.3491 31.7533 10.1915 31.7533C9.85109 31.7533 9.01527 30.4752 9.13019 30.1305C9.17403 29.9986 9.78119 29.7407 10.4792 29.5577C12.0379 29.1487 12.0019 29.1537 12.1084 29.3345ZM34.8416 29.578C35.4958 29.8268 35.4666 30.1125 34.6947 31.0105C34.0767 31.73 34.0416 31.7429 33.3201 31.5205C32.4685 31.2579 32.425 31.0532 32.9878 29.9504C33.4206 29.1019 33.5311 29.0798 34.8416 29.578ZM1.3482 32.5092C0.380885 33.4763 0 34.0007 0 34.3652C0 34.6446 0.355414 35.6461 0.789809 36.5909C1.67321 38.5123 1.71428 38.8829 1.26231 40.8697C0.819822 42.8152 0.947968 43.0261 2.89149 43.5515C5.77311 44.3304 6.84488 44.4933 7.1922 44.2051C7.66075 43.8163 7.58572 42.8734 7.05892 42.5309C6.81467 42.3721 5.99268 42.1008 5.23248 41.9282C4.47229 41.7557 3.74587 41.5493 3.61831 41.4698C3.44238 41.3598 3.45601 40.9562 3.67498 39.7969L3.96346 38.2691L3.13357 36.4829L2.30368 34.6967L3.22499 33.7612C4.26181 32.7088 4.47822 31.7474 3.76462 31.3653C3.05775 30.987 2.70174 31.1554 1.3482 32.5092ZM58.2099 35.653C57.5532 36.2774 56.7557 37.2476 56.4376 37.809C56.1197 38.3701 55.7528 38.912 55.6223 39.0127C55.4167 39.1716 52.8674 39.8508 52.4818 39.8495C52.4052 39.8491 51.9677 39.218 51.5096 38.4468C50.5422 36.8186 50.0204 36.4722 49.2724 36.9623C48.9964 37.1432 48.7707 37.4737 48.7707 37.6968C48.7707 38.273 51.0918 41.9788 51.5419 42.1217C51.9684 42.2572 56.8194 41.1207 57.2146 40.7929C57.3571 40.6744 57.6525 40.1624 57.8709 39.655C58.1011 39.1195 58.8021 38.2027 59.5415 37.47C60.587 36.4337 60.8153 36.0925 60.8153 35.5669C60.8153 34.9134 60.4052 34.5177 59.7277 34.5177C59.5496 34.5177 58.8666 35.0287 58.2099 35.653ZM12.4839 38.1259C10.9592 39.6609 10.6674 40.416 11.4392 40.8292C12.0926 41.1789 12.5353 41.0585 13.2293 40.3425C13.5977 39.9624 14.015 39.6514 14.1567 39.6514C14.2983 39.6514 15.2139 40.6638 16.1913 41.901C17.1687 43.1382 18.1089 44.2045 18.2805 44.2704C18.4523 44.3364 19.7194 44.3903 21.0962 44.3903H23.5997L24.9242 43.5017C25.6528 43.013 26.3626 42.6152 26.5018 42.6173C26.6408 42.6197 27.3691 43.0196 28.12 43.5059C29.6658 44.5074 30.2594 44.6027 30.706 43.9209C30.9497 43.5493 30.9672 43.3538 30.7911 42.983C30.5382 42.4509 27.049 40.0463 26.5297 40.0463C26.3425 40.0463 25.4549 40.535 24.5573 41.1323L22.9252 42.2183H21.0684H19.2115L16.9878 39.454C15.3663 37.438 14.6486 36.6896 14.3374 36.6896C14.0697 36.6896 13.3784 37.2253 12.4839 38.1259Z" fill="black"/> </svg>