<svg xmlns="http://www.w3.org/2000/svg" width="43" height="61" viewBox="0 0 43 61" fill="none"> <path fill-rule="evenodd" clip-rule="evenodd" d="M2.26744 0.778058C1.37125 1.0507 0.70335 1.62244 0.310142 2.45354L0.00166263 3.10579L0.00155475 30.3287C0.00144682 60.7193 -0.0701143 58.039 0.770701 59.1375C1.05295 59.5064 1.41767 59.8119 1.86592 60.0549C2.51342 60.4061 2.58121 60.4194 3.72521 60.4194C5.12956 60.4194 5.63092 60.2304 6.48102 59.3803C7.35529 58.5059 7.44898 58.105 7.44898 55.2344V52.81H21.3726H35.2963V55.2344C35.2963 58.1035 35.3787 58.455 36.2637 59.3587C37.1191 60.2324 37.6026 60.4183 39.02 60.419C40.1008 60.4194 40.2558 60.3935 40.747 60.131C41.4475 59.7567 42.0419 59.1646 42.4018 58.4828L42.6898 57.9369L42.7177 30.5388C42.7452 3.40585 42.7434 3.13601 42.5311 2.65592C42.1849 1.87349 41.7115 1.36523 40.9957 1.00753L40.3348 0.677246L21.4363 0.686529C11.0423 0.691602 2.41618 0.732833 2.26744 0.778058ZM40.3775 3.04351L40.693 3.35901V27.0591V50.7592H21.3726H2.05222V27.0591V3.35901L2.36771 3.04351L2.68321 2.72802H21.3726H40.0621L40.3775 3.04351ZM4.32836 4.73345L3.99505 5.01387V12.1219V19.23L4.2555 19.5329L4.51606 19.8358L21.0125 19.8666C30.0856 19.8837 37.6723 19.8684 37.8718 19.8325C38.0714 19.7968 38.3506 19.6515 38.4925 19.5097L38.7502 19.2519V12.1833V5.11468L38.4898 4.81181L38.2292 4.50895L21.4454 4.48099L4.66166 4.45293L4.32836 4.73345ZM36.6994 12.1724V17.839H21.3726H6.04582V12.1724V6.50575H21.3726H36.6994V12.1724ZM8.24004 8.3848C7.59664 8.6746 7.44844 9.49793 7.94937 9.99897C8.21403 10.2636 8.30091 10.2835 9.19062 10.2835H10.1474V12.2803V14.2771H9.23822C8.41759 14.2771 8.2967 14.3043 7.99697 14.5565C7.53155 14.9481 7.52777 15.5598 7.98801 16.0199L8.31106 16.3431L9.99442 16.3084L11.6777 16.2739L11.9379 15.971L12.1981 15.6682V12.3299V8.99172L11.8833 8.6392L11.5684 8.28668L10.0754 8.25862C8.96353 8.23779 8.49487 8.26995 8.24004 8.3848ZM4.26975 21.9993L3.99505 22.2741V35.2837V48.2933L4.31055 48.6088L4.62604 48.9243H21.3726H38.1192L38.4347 48.6088L38.7502 48.2933V35.2946V22.2958L38.4856 22.0102L38.2208 21.7246H21.3827H4.54455L4.26975 21.9993ZM20.2933 35.3245V46.8735H13.1696H6.04582V35.3245V23.7754H13.1696H20.2933V35.3245ZM36.6994 35.3245V46.8735H29.5757H22.452V35.6618C22.452 29.4953 22.4217 24.2982 22.3845 24.1127L22.3171 23.7754H29.5083H36.6994V35.3245ZM7.9443 31.7709C7.58142 32.2021 7.57418 32.7244 7.9253 33.1327C8.16934 33.4166 8.24727 33.438 9.16893 33.4734L10.1521 33.5113L10.1228 35.4702L10.0934 37.4292L9.08506 37.4832C8.19017 37.5311 8.05363 37.5659 7.87079 37.792C7.57149 38.1623 7.59685 38.8282 7.9226 39.1539C8.26508 39.4964 8.70114 39.5643 10.2613 39.5183L11.5685 39.4797L11.8833 39.1274L12.1981 38.7749V35.4224V32.0698L11.8826 31.7543L11.5671 31.4388H9.89544H8.22374L7.9443 31.7709ZM24.4944 31.7543C24.2609 31.9879 24.1789 32.1722 24.1789 32.4642C24.1789 32.7562 24.2609 32.9405 24.4944 33.1741C24.7943 33.4738 24.8561 33.4896 25.7382 33.4896H26.6663L26.637 35.4594L26.6075 37.4292L25.6533 37.4832C24.7735 37.5329 24.6789 37.5608 24.4391 37.84C24.0852 38.252 24.1038 38.6908 24.4937 39.1275L24.8084 39.48L26.0201 39.5169C27.604 39.5652 28.1311 39.4818 28.4555 39.1318L28.7122 38.8548V35.4623V32.0698L28.3967 31.7543L28.0812 31.4388H26.4456H24.8099L24.4944 31.7543ZM5.39821 55.082C5.39821 56.8739 5.36453 57.419 5.2389 57.662C4.70742 58.6899 2.743 58.6899 2.21153 57.662C2.08589 57.419 2.05222 56.8739 2.05222 55.082V52.81H3.72521H5.39821V55.082ZM40.693 55.0909C40.693 57.2373 40.6793 57.3939 40.4608 57.7477C39.8714 58.7011 38.0208 58.6568 37.5142 57.6772C37.3788 57.4155 37.3471 56.9221 37.3471 55.082V52.81H39.02H40.693V55.0909Z" fill="black"/> </svg>