<svg xmlns="http://www.w3.org/2000/svg" width="55" height="61" viewBox="0 0 55 61" fill="none"> <path fill-rule="evenodd" clip-rule="evenodd" d="M33.8775 0.732073C33.6483 0.777581 28.343 5.98575 18.3301 15.9949L3.13059 31.1888L3.16051 35.1017L3.19043 39.0148L2.60772 39.647C1.61683 40.7221 1.47293 42.2428 2.2566 43.3584C2.81759 44.157 3.5879 44.4796 4.93382 44.4796H6.04342V50.7404V57.0011L5.55549 57.205C4.99547 57.439 4.79089 57.8533 4.79089 58.7536V59.3708H2.56736C0.383085 59.3708 0.340081 59.3766 0.128125 59.6999C-0.147711 60.1209 0.0425348 60.6885 0.500684 60.8112C0.678822 60.8588 12.7392 60.8988 27.3017 60.8997C53.5946 60.9017 53.7808 60.8997 54.0572 60.6233C54.3922 60.2884 54.4053 60.0889 54.1188 59.6802C53.9104 59.3825 53.8185 59.3708 51.6834 59.3708H49.4646V58.6658C49.4646 57.7805 49.29 57.4516 48.6865 57.1995L48.2091 57L48.2454 50.7745L48.2816 44.5492L49.5342 44.4744C50.8802 44.3943 51.1382 44.3017 51.7187 43.6913C52.4807 42.8901 52.7353 41.6308 52.3311 40.6632C52.2238 40.4063 51.9106 39.9467 51.6352 39.6419L51.1346 39.0878L51.1325 35.2775C51.131 32.4864 51.0834 31.374 50.9545 31.1192L50.7786 30.7713L47.8286 30.7337L44.8786 30.6961L42.3829 26.9065C41.0102 24.8223 39.1049 21.927 38.1489 20.4727C37.1928 19.0184 35.2344 16.0436 33.7966 13.8621C32.359 11.6806 31.1594 9.77049 31.1307 9.6174C31.0916 9.40893 31.7458 8.6748 33.7354 6.69483C35.1967 5.2405 36.484 3.8815 36.5962 3.67483C37.0241 2.88601 36.7945 1.76639 36.0648 1.08487C35.7113 0.754757 34.6371 0.58149 33.8775 0.732073ZM35.1022 2.19962C35.6438 2.74128 35.8211 2.55019 21.5682 16.7845C14.0326 24.3102 7.78556 30.5193 7.68591 30.5826C7.58626 30.6458 7.1714 30.6984 6.76391 30.6996C6.17911 30.7013 6.03243 30.658 6.06805 30.4941C6.09283 30.3798 12.4664 23.9293 20.2317 16.1595C30.0056 6.37988 34.4404 2.03262 34.6428 2.03262C34.8037 2.03262 35.0103 2.10777 35.1022 2.19962ZM30.462 11.4617C30.6884 11.8251 32.5614 14.6902 34.6241 17.8285C36.6868 20.9667 39.2179 24.8183 40.2486 26.3874C41.2794 27.9566 42.2715 29.463 42.4536 29.735C42.9777 30.5184 42.908 30.7017 42.086 30.7017H41.3878L39.7316 28.1619C37.0868 24.106 37.225 24.2641 36.5824 24.5569C35.9424 24.8486 36.1204 25.3505 37.7743 27.9183C38.6162 29.2255 39.3051 30.3866 39.3051 30.4984C39.3051 30.6754 37.4144 30.7017 24.6922 30.7017C13.113 30.7017 10.0794 30.6657 10.0794 30.5282C10.0794 30.3169 27.6221 12.7487 27.833 12.7487C27.9153 12.7487 29.0367 14.3928 30.325 16.402C33.3017 21.0443 33.2384 20.9598 33.7405 20.9598C34.2073 20.9598 34.5017 20.5517 34.3811 20.0717C34.339 19.9038 33.911 19.1624 33.4299 18.4242C32.2915 16.6772 30.5228 13.9361 29.6534 12.5714L28.9642 11.4897L29.2879 11.1449C29.7536 10.6494 29.9967 10.7149 30.462 11.4617ZM49.5342 35.5031V38.8432H48.6353H47.7364L47.6412 38.3779C47.5888 38.1221 47.4924 37.8595 47.4267 37.7944C47.2564 37.6253 7.05491 37.5666 6.88999 37.7351C6.81804 37.8087 6.73899 38.0882 6.71436 38.3561L6.66969 38.8432H5.6955H4.7213L4.68387 35.6453C4.66313 33.8865 4.67691 32.3676 4.71434 32.27C4.76932 32.1271 9.12938 32.0994 27.1583 32.1278L49.5342 32.163V35.5031ZM9.35526 39.987C9.39436 40.8063 9.37822 40.8571 9.05312 40.9388C8.35407 41.1143 8.2039 40.9871 8.15784 40.1806C8.09869 39.1443 8.16633 39.0266 8.79092 39.0782L9.31392 39.1215L9.35526 39.987ZM11.9807 39.2692C12.0265 39.3887 12.009 39.8114 11.9415 40.2086L11.819 40.9307H11.2623H10.7056L10.7548 40.0957C10.7818 39.6364 10.8324 39.2138 10.8673 39.1563C10.9908 38.9533 11.8946 39.045 11.9807 39.2692ZM14.5046 40.0693L14.5459 41.017L13.9479 40.9739L13.3499 40.9307L13.3815 40.1696C13.4252 39.1196 13.4786 39.0266 14.0099 39.0778L14.4632 39.1215L14.5046 40.0693ZM17.177 39.9539C17.177 40.7996 17.1555 40.8613 16.8294 40.9431C16.6382 40.9911 16.3927 40.9961 16.2839 40.9544C16.069 40.8719 15.8297 39.4569 15.9876 39.2017C16.0385 39.1193 16.3269 39.0519 16.6286 39.0519H17.177V39.9539ZM19.793 40.0693L19.8344 41.017L19.2364 40.9739L18.6383 40.9307L18.5962 40.2744C18.538 39.3708 18.7445 39.024 19.3086 39.0787L19.7517 39.1215L19.793 40.0693ZM22.3959 39.1584C22.4725 39.2146 22.5351 39.6051 22.5351 40.0261C22.5351 40.8628 22.4459 40.995 21.8789 40.9982C21.3627 41.0012 21.1811 40.6118 21.2957 39.7479C21.3842 39.0805 21.4059 39.0521 21.8224 39.054C22.0612 39.0553 22.3194 39.1022 22.3959 39.1584ZM25.1098 39.9539C25.1098 40.814 25.0926 40.8602 24.7403 40.9485C24.1285 41.1022 23.9317 40.8624 23.8853 39.9073L23.844 39.0519H24.4768H25.1098V39.9539ZM27.6861 39.6434C27.7347 39.9686 27.7072 40.4111 27.6251 40.6264C27.4976 40.9607 27.4096 41.0116 27.0235 40.9743L26.571 40.9307L26.6092 40.1653C26.6603 39.1375 26.7045 39.0519 27.1844 39.0519C27.564 39.0519 27.6049 39.1001 27.6861 39.6434ZM30.1781 39.1364C30.3442 39.2001 30.3982 39.4213 30.3982 40.0384C30.3982 40.7871 30.37 40.863 30.0613 40.9405C29.3691 41.1142 29.2186 40.9854 29.1726 40.1806C29.149 39.7695 29.1628 39.3473 29.203 39.2425C29.2787 39.0451 29.794 38.989 30.1781 39.1364ZM32.9033 40.0261C32.9033 40.9637 32.8906 41.0003 32.5668 41.0003C31.8835 41.0003 31.7899 40.8827 31.7899 40.0228C31.7899 39.1659 31.8538 39.082 32.5206 39.0629C32.9027 39.0519 32.9033 39.0535 32.9033 40.0261ZM35.5557 39.9565C35.6423 40.8869 35.5574 41.0222 34.9213 40.9671C34.5196 40.9321 34.5021 40.9022 34.461 40.1819C34.4033 39.1686 34.4766 39.0251 35.0247 39.0778C35.471 39.1208 35.4792 39.1343 35.5557 39.9565ZM38.1637 39.9931C38.2092 40.9483 38.0847 41.1085 37.4261 40.9431C37.1051 40.8625 37.0784 40.7935 37.0784 40.0467C37.0784 39.6017 37.1231 39.1928 37.1778 39.1381C37.2325 39.0835 37.4672 39.0574 37.6997 39.0802C38.1158 39.1208 38.1229 39.1347 38.1637 39.9931ZM40.7664 40.0261V40.9307H40.2793H39.7922L39.7495 40.1819C39.6917 39.1686 39.7651 39.0251 40.3131 39.0778L40.7664 39.1215V40.0261ZM43.452 39.987C43.4914 40.813 43.4772 40.8567 43.1391 40.9414C42.4866 41.1053 42.3669 40.952 42.3669 39.9525V39.0351L42.8888 39.0784L43.4107 39.1215L43.452 39.987ZM46.0962 39.987C46.1356 40.813 46.1214 40.8567 45.7834 40.9414C45.1468 41.1012 45.0111 40.9452 45.0111 40.0537C45.0111 39.6047 45.0558 39.1928 45.1105 39.1381C45.1652 39.0835 45.4 39.0574 45.6324 39.0802C46.0481 39.1208 46.0556 39.1354 46.0962 39.987ZM6.6001 41.0762C6.6001 41.6916 6.66356 41.911 6.91324 42.1592L7.22637 42.4702L27.1892 42.4285C49.825 42.3812 47.6554 42.5132 47.6554 41.1826V40.4339L49.0672 40.4736C50.3914 40.5107 50.4948 40.5348 50.731 40.8611C50.8695 41.0525 51.0202 41.3672 51.066 41.5605C51.179 42.0385 50.6364 42.825 50.0908 42.9739C49.8612 43.0367 39.3966 43.0723 26.836 43.0531C1.69365 43.0148 3.70007 43.0909 3.31123 42.1604C3.1587 41.7955 3.15856 41.6287 3.31095 41.1862C3.55826 40.4677 3.93207 40.3089 5.38236 40.3066L6.6001 40.3045V41.0762ZM8.79788 50.6514C8.8285 55.2622 8.79746 56.8031 8.67054 56.9559C8.57229 57.0742 8.32428 57.1409 8.07322 57.1164L7.64388 57.0745L7.60756 50.8906C7.57917 46.0372 7.60909 44.6818 7.74673 44.5916C7.84331 44.5284 8.1101 44.4929 8.33973 44.5128L8.75724 44.5492L8.79788 50.6514ZM43.9673 50.8118V57.0745L43.6715 57.1167C43.1344 57.1933 42.805 57.7049 42.7581 58.5358L42.7148 59.3012H27.1277H11.5406L11.4975 58.54C11.4487 57.6786 11.3144 57.4593 10.6708 57.1903L10.2185 57.0011V50.8331C10.2185 47.4407 10.2606 44.6232 10.3119 44.5718C10.3633 44.5205 17.9567 44.4943 27.1863 44.5138L43.9673 44.5492V50.8118ZM46.6478 50.777L46.6116 57.0745L46.1591 57.1181C45.7795 57.1547 45.6844 57.1029 45.5677 56.7959C45.4178 56.4013 45.3703 45.3374 45.5163 44.7927C45.5852 44.5359 45.6978 44.4796 46.1422 44.4796H46.6839L46.6478 50.777ZM9.91904 58.6589C10.0223 58.7244 10.0841 58.8957 10.0565 59.0396C10.0109 59.2774 9.84013 59.3047 8.18038 59.3399C6.54791 59.3746 6.34459 59.3528 6.26095 59.1349C6.08615 58.6793 6.55111 58.5356 8.19235 58.5379C9.03892 58.5391 9.81591 58.5935 9.91904 58.6589ZM47.9085 58.9923L47.953 59.379L46.1011 59.3402C44.416 59.3047 44.2446 59.2777 44.1989 59.0396C44.1165 58.61 44.4409 58.5337 46.1941 58.5704L47.8641 58.6054L47.9085 58.9923Z" fill="black"/> </svg>