<svg xmlns="http://www.w3.org/2000/svg" width="40" height="45" viewBox="0 0 40 45" fill="none"> <path fill-rule="evenodd" clip-rule="evenodd" d="M19.1288 0.291812C18.3797 0.69517 16.3686 1.84908 4.90957 8.45069L0.500122 10.9908L0.558895 17.2035C0.591126 20.6204 0.629044 25.67 0.643027 28.4245L0.668622 33.4331L4.9937 35.9096C10.3869 38.9976 18.8939 43.9019 19.4589 44.2484C19.9127 44.5271 20.7183 44.1503 24.7232 41.7863C25.7659 41.1708 29.4718 39.0272 32.9586 37.023L39.2981 33.3788V22.2054C39.2981 13.5503 39.2313 10.9791 39.0019 10.7969C38.8391 10.6675 36.946 9.55152 34.7953 8.31679C32.6446 7.08207 28.752 4.84322 26.1451 3.34141C19.5158 -0.477223 20.0921 -0.226724 19.1288 0.291812ZM19.1539 2.65058C19.1539 2.89516 19.3229 3.23571 19.5293 3.40706C20.0064 3.80307 20.6626 3.43668 20.7702 2.71457C20.8117 2.43468 20.8922 2.20551 20.9491 2.20551C21.0057 2.20551 24.1179 3.97726 27.8645 6.14264C31.6113 8.30803 35.1299 10.3388 35.684 10.6554C36.2381 10.972 36.6912 11.3199 36.6912 11.4287C36.6912 11.5373 35.225 12.4601 33.4326 13.4792C31.6405 14.4982 29.8026 15.578 29.3488 15.8785C28.8949 16.179 28.3939 16.425 28.2356 16.425C28.0776 16.425 27.2926 16.0249 26.4918 15.5362C25.6911 15.0476 24.7523 14.4906 24.4056 14.2989C20.8415 12.3274 20.842 12.3276 20.7662 11.3538C20.6287 9.58706 19.1539 9.64987 19.1539 11.4226C19.1539 12.2388 19.0719 12.3312 17.6727 13.0905C16.8582 13.5327 15.9249 14.0761 15.599 14.2984C15.2732 14.5207 14.283 15.0978 13.3988 15.581L11.7913 16.4596L10.7246 15.9432C10.1378 15.6592 9.52307 15.3047 9.35836 15.1556C9.19365 15.0066 8.58412 14.6309 8.00396 14.321C5.91702 13.2066 3.27552 11.5915 3.27552 11.4301C3.27552 11.2628 5.74994 9.71291 7.52524 8.76803C8.88888 8.04236 16.4432 3.66988 17.7192 2.8679C18.9622 2.08654 19.1539 2.05739 19.1539 2.65058ZM19.4383 4.85981C19.1439 5.15415 19.0409 7.79707 19.2978 8.46634C19.4843 8.9524 20.4825 8.9524 20.669 8.46634C20.9022 7.85845 20.8335 5.53073 20.5676 5.03376C20.2879 4.51143 19.8535 4.4446 19.4383 4.85981ZM5.67647 14.7919C7.53448 15.8488 9.44415 16.9596 9.92003 17.2599L10.7853 17.8061L10.9362 19.9319C11.0192 21.101 11.0209 23.0671 10.9398 24.3006L10.7924 26.5438L9.99634 26.9725C9.43681 27.2737 9.20029 27.5683 9.20029 27.9638C9.20029 28.7731 9.85202 28.9118 10.8784 28.3209L11.7641 27.8112L15.3997 29.9017L19.0354 31.9919L19.0994 37.006C19.1345 39.7636 19.0712 42.02 18.9586 42.02C18.8461 42.02 17.1641 41.1011 15.2213 39.9783C13.2784 38.8554 9.82239 36.8668 7.54135 35.5589C5.26032 34.2512 3.34946 33.1435 3.29495 33.0975C3.24045 33.0513 3.33643 32.7508 3.50848 32.4297C3.92085 31.659 3.46085 31.0205 2.64133 31.2262L2.09057 31.3644V22.1172C2.09057 17.0314 2.13725 12.8701 2.19437 12.8701C2.25148 12.8701 3.81823 13.7349 5.67647 14.7919ZM37.8762 22.1405V31.4106L37.3794 31.2807C37.106 31.2092 36.7327 31.2082 36.55 31.2784C36.1376 31.4367 36.1096 32.4609 36.5135 32.6107C36.7384 32.6941 36.7242 32.8067 36.4542 33.0795C36.0288 33.5089 21.27 42.02 20.9505 42.02C20.8697 42.02 20.8323 39.7581 20.8673 36.9939L20.9313 31.9678L22.2348 31.2291C22.9517 30.8229 24.5827 29.8846 25.8593 29.1443L28.1802 27.7981L29.0769 28.3143C30.8383 29.3282 31.4623 27.973 29.745 26.8639L28.8418 26.2807L28.9343 22.1495L29.0269 18.0182L29.6464 17.567C30.4373 16.9909 37.4619 12.9071 37.6984 12.886C37.7961 12.8772 37.8762 17.0416 37.8762 22.1405ZM22.0644 14.8044C23.0052 15.3469 24.3352 16.1015 25.0194 16.4811C25.7036 16.8608 26.2636 17.2639 26.2636 17.377C26.2636 17.5547 24.3111 18.7667 20.9259 20.6903L19.9722 21.2321L16.7193 19.3705C14.93 18.3465 13.4661 17.4322 13.4661 17.3383C13.4661 17.2445 13.6894 17.0971 13.9624 17.0103C14.2352 16.9238 14.9172 16.5432 15.4779 16.165C16.0387 15.7865 16.5885 15.4742 16.6999 15.4708C16.8112 15.4675 17.4841 15.0943 18.195 14.6414C18.9058 14.1885 19.6822 13.8181 19.9203 13.8181C20.1585 13.8181 21.1233 14.2619 22.0644 14.8044ZM15.0815 20.2547C16.2133 20.9273 17.3528 21.597 17.6135 21.7428C19.2584 22.6626 19.1539 22.3521 19.1539 26.3172C19.1539 29.0592 19.0823 29.9304 18.8577 29.9204C18.6949 29.9133 17.2284 29.1397 15.599 28.2013L12.6367 26.4952L12.5715 22.7635C12.5262 20.1865 12.5862 19.0319 12.7646 19.0319C12.9068 19.0319 13.9493 19.5822 15.0815 20.2547ZM27.3896 22.6908L27.4097 26.3497L26.7774 26.7665C25.7212 27.463 21.2418 29.9334 21.0351 29.9334C20.8114 29.9334 20.6365 24.818 20.8128 23.4328C20.9169 22.6156 21.0622 22.4329 21.9978 21.9423C22.5843 21.6347 23.9174 20.8588 24.9602 20.218C26.0029 19.5772 26.9715 19.0482 27.1128 19.0423C27.2855 19.0354 27.3761 20.2275 27.3896 22.6908ZM5.95044 29.2869C4.61239 30.0811 4.30122 30.5226 4.72235 31.03C5.11955 31.5085 5.46532 31.4388 6.92281 30.5852C8.34428 29.7526 8.64881 29.3447 8.22744 28.8369C7.83522 28.3643 7.33991 28.4624 5.95044 29.2869ZM31.7618 28.7959C31.2435 29.3142 31.4634 29.6538 32.8712 30.5088C34.3877 31.43 34.8313 31.5274 35.2444 31.03C35.6857 30.4982 35.3181 30.0256 33.8575 29.2469C32.3142 28.4245 32.1654 28.3923 31.7618 28.7959Z" fill="#EA5B5B"/> </svg>