<svg xmlns="http://www.w3.org/2000/svg" width="29" height="69" viewBox="0 0 29 69" fill="none"> <path fill-rule="evenodd" clip-rule="evenodd" d="M6.93669 3.39723L6.89121 6.4393L5.80833 6.55142C3.24255 6.81698 1.52026 8.03181 0.416883 10.3544L0.0606965 11.104L0.0165481 37.2594C-0.0241018 61.2825 -0.00510945 63.4868 0.249952 64.2976C0.886023 66.3201 2.76208 68.067 4.7391 68.478C5.46863 68.6296 8.10838 68.6695 14.8879 68.6317L24.0508 68.5803L24.9962 68.1372C26.2597 67.5448 27.298 66.5557 27.9842 65.2904L28.5489 64.2488V37.6764V11.104L28.1058 10.1586C27.1375 8.09329 25.2302 6.76167 22.9686 6.57208L21.8091 6.47496L21.7637 3.45837L21.7184 0.441778L14.3503 0.398463L6.98201 0.35498L6.93669 3.39723ZM19.7193 4.44013V6.4393H14.3048H8.89039L8.90938 5.89786C8.91971 5.60015 8.93854 4.6807 8.95103 3.8547L8.97369 2.35299L14.3465 2.39697L19.7193 2.44095V4.44013ZM24.3998 8.97009C25.194 9.39509 26.0773 10.3462 26.404 11.1282C26.5808 11.5514 26.6331 12.7992 26.6331 16.5974V21.5186L14.3465 21.4758L2.05987 21.4331V16.4352V11.4372L2.52168 10.6516C2.77574 10.2194 3.24222 9.66864 3.55825 9.42757C4.71628 8.54427 4.8259 8.53577 14.638 8.57176C23.6315 8.60474 23.7241 8.60858 24.3998 8.97009ZM26.6331 29.9296V36.3436H14.3048H1.97657V29.9296V23.5156H14.3048H26.6331V29.9296ZM26.6331 44.7568V51.1709H14.3048H1.97657V44.7568V38.3428H14.3048H26.6331V44.7568ZM26.6331 58.3399C26.6331 62.3494 26.5816 63.6329 26.404 64.058C26.0773 64.84 25.194 65.7912 24.3998 66.2161C23.7251 66.5772 23.6171 66.5817 14.6762 66.6283C8.68331 66.6595 5.41366 66.6158 4.97884 66.4989C3.97692 66.229 2.9605 65.359 2.44038 64.3258L1.98224 63.4158L1.9794 58.404C1.97791 55.6475 2.02655 53.3421 2.08769 53.2811C2.14867 53.22 7.69638 53.17 14.4159 53.17H26.6331V58.3399Z" fill="black"/> </svg>