<svg xmlns="http://www.w3.org/2000/svg" width="33" height="47" viewBox="0 0 33 47" fill="none"> <path fill-rule="evenodd" clip-rule="evenodd" d="M12.0686 0.202986C10.7337 0.579116 9.60181 2.21566 9.88808 3.35593C9.97718 3.71079 9.86164 3.85431 9.22817 4.17755C8.12891 4.7384 7.60159 5.57132 7.5056 6.89822C7.42819 7.96722 7.47245 8.08755 9.08657 11.2039C11.2253 15.3327 11.2249 15.3465 9.00284 16.2225C5.1442 17.7437 4.62896 18.0145 3.67915 19.02C3.1687 19.5604 2.52393 20.4839 2.2459 21.0724C1.12613 23.4432 0.558967 26.7262 0.924367 28.7209C1.03052 29.3005 1.25068 30.4816 1.41336 31.3454C1.67414 32.7282 1.67605 32.98 1.42945 33.4531C1.27521 33.7485 1.14874 34.1009 1.14798 34.2364C1.1474 34.3718 1.02151 34.674 0.868226 34.908C0.489413 35.4861 0.00349013 37.6214 4.11509e-05 38.7231C-0.00455749 40.1767 0.376172 41.559 1.19147 43.0497C2.00773 44.5423 2.62433 45.1233 4.12732 45.8163L5.07483 46.2532H16.6672H28.2596L29.1978 45.7878C30.5845 45.0999 31.5138 44.1074 32.2699 42.5067C32.8993 41.1734 32.9466 40.9406 32.9874 38.9628C33.0296 36.9281 33.003 36.7702 32.3017 34.9009L31.572 32.9557L31.8726 31.1737C32.6571 26.5243 32.4329 24.3311 30.8263 20.9304C29.7946 18.747 28.8768 18.0789 24.6191 16.4122C22.6351 15.6356 22.5081 15.5534 22.4546 15.0143C22.418 14.6429 23.1082 12.59 24.4184 9.17436C25.5296 6.2776 26.489 3.64105 26.5505 3.31569C26.7998 1.99301 25.6382 0.510137 24.0931 0.178843C22.9185 -0.0731245 12.9772 -0.0531971 12.0686 0.202986ZM24.1527 2.2854C24.3847 2.40976 24.5192 2.6782 24.5127 3.00394C24.5068 3.29002 23.7511 5.46421 22.8331 7.83539L21.1639 12.1466L20.2549 12.2051C19.047 12.2828 18.9794 12.0441 19.637 10.0224C20.1501 8.44528 20.1551 8.38761 19.8154 8.01224C19.5989 7.77292 19.2793 7.64742 18.9765 7.68268C18.3609 7.75434 17.765 8.92622 17.3829 10.817L17.1143 12.1466H16.4013C15.6946 12.1466 15.6845 12.1355 15.2675 10.9011C14.7385 9.33493 13.9176 7.92583 13.2974 7.51942C12.1828 6.78901 11.3834 8.11418 12.2637 9.23318C12.7915 9.90459 13.4005 11.2849 13.4057 11.8222C13.4095 12.2242 13.3361 12.2591 12.5986 12.2054L11.7873 12.1466L10.5938 9.84729C9.93732 8.58267 9.39717 7.35004 9.39315 7.10823C9.38299 6.48186 10.1755 5.77328 11.0412 5.63417C11.4482 5.56883 11.9105 5.44486 12.0686 5.35883C12.4258 5.16415 12.4164 4.14191 12.0496 3.26913C11.5673 2.12196 11.7475 2.08709 18.1536 2.08709C21.6669 2.08709 23.9212 2.16162 24.1527 2.2854ZM20.4994 14.7334V15.3082H16.5714H12.6434V14.7334V14.1585H16.5714H20.4994V14.7334ZM15.7845 17.5274C15.8485 17.6941 15.9008 18.5964 15.9008 19.5326C15.9008 21.0193 15.9477 21.2598 16.2714 21.433C16.7979 21.7147 16.9989 21.6829 17.4337 21.2481C17.7631 20.9187 17.8169 20.6095 17.8169 19.0446V17.2243H18.4808C19.8855 17.2243 22.0323 19.742 22.0323 21.3895C22.0323 22.8266 23.1965 23.5215 23.8735 22.4886C24.2816 21.8658 24.1285 20.6221 23.4659 19.1747C23.2013 18.5968 23.0178 18.0911 23.0578 18.0511C23.2397 17.869 27.3093 19.6261 27.8929 20.1385C29.1842 21.2724 30.3013 24.4392 30.311 26.9939C30.3164 28.3769 29.9297 31.4034 29.7479 31.4034C29.6996 31.4034 29.4195 31.2321 29.1253 31.0227C28.5089 30.5837 27.904 29.2378 28.0774 28.6914C28.2658 28.098 27.662 27.3451 27.0546 27.416C26.0126 27.5373 25.7821 29.3563 26.6041 30.9679C27.028 31.7985 28.3878 33.1283 29.2917 33.5956C29.6199 33.7654 29.8883 33.9936 29.8883 34.103C29.8883 34.2122 30.1503 34.8449 30.4706 35.5091C31.1744 36.9682 31.4365 38.4443 31.225 39.757C30.8916 41.8261 30.0606 43.1313 28.6618 43.7826L27.6848 44.2375L16.5159 44.2394C5.92003 44.2411 5.31032 44.2227 4.63356 43.8774C3.66937 43.3854 2.97594 42.6592 2.44882 41.5892C2.0838 40.8481 2.00907 40.3874 2.00907 38.8762C2.00907 36.2531 2.66361 34.9586 3.26086 36.4004C3.51091 37.0042 5.52148 38.7729 6.1421 38.9352C6.68091 39.0761 7.27835 38.5451 7.27835 37.9253C7.27835 37.4934 7.08808 37.2426 6.36686 36.7244C5.29518 35.9545 4.17407 34.4035 3.64695 32.9612C3.14168 31.5791 2.80061 28.4666 2.92114 26.3388C3.07404 23.6413 4.21565 20.8597 5.56401 19.8995C6.35364 19.3374 10.804 17.5993 10.8871 17.8208C10.9222 17.9143 10.6869 18.3243 10.3642 18.7317C9.21553 20.1822 8.63533 22.3368 9.23277 22.9343C9.7687 23.4702 10.9189 22.9291 10.9189 22.1412C10.9189 21.1314 12.2547 19.2249 13.8398 17.9719C14.8309 17.1884 15.5881 17.0154 15.7845 17.5274ZM14.7598 24.7147C12.8241 25.0943 10.4508 26.7628 9.47267 28.4319C8.78996 29.5967 8.38662 31.2609 8.3575 33.0321C8.33584 34.3381 8.40981 34.7281 8.85664 35.6667C9.14501 36.2726 9.42036 36.7685 9.46845 36.7685C9.51655 36.7685 9.8693 36.5836 10.2525 36.3575C10.8126 36.027 10.9239 35.8674 10.8206 35.5432C9.9628 32.8489 9.96798 31.4429 10.8413 29.9526C12.0435 27.9012 13.7894 26.7699 15.946 26.645C17.586 26.5499 18.2001 26.6977 18.2001 27.1872C18.2001 27.8571 18.9298 28.151 20.0204 27.9209C21.4088 27.6277 21.5228 27.4869 21.3768 26.2445C21.3088 25.6659 21.1134 25.0378 20.9424 24.8488C20.5893 24.4587 19.9171 24.398 19.5885 24.7266C19.4214 24.8937 19.0401 24.8937 18.0282 24.7266C16.5184 24.4773 15.9815 24.4754 14.7598 24.7147ZM22.5577 29.0876C22.2672 29.2739 21.986 29.4699 21.9327 29.523C21.8796 29.5762 22.0233 30.0426 22.2521 30.5594C22.8476 31.9043 22.8118 33.8139 22.1638 35.2738C21.218 37.4035 18.8723 39.0678 16.8157 39.0678C15.1033 39.0678 14.5595 38.9015 14.5595 38.3776C14.5595 38.1102 14.3677 37.8013 14.0878 37.6179C13.6431 37.3265 13.5559 37.337 12.5773 37.8001C12.0059 38.0703 11.4886 38.4215 11.4277 38.5804C11.3079 38.8925 11.7482 40.3106 12.0947 40.7279C12.3495 41.0349 13.0613 41.0642 13.3461 40.7795C13.4907 40.6348 13.8931 40.6459 14.7257 40.8178C16.361 41.1556 18.832 40.7969 20.3151 40.0065C21.9206 39.1508 22.7108 38.2604 23.8683 36.0021C24.5589 34.6549 24.6055 34.4571 24.612 32.8405C24.6177 31.4423 24.529 30.8893 24.1433 29.9184C23.6307 28.6281 23.4347 28.5254 22.5577 29.0876Z" fill="black"/> </svg>