<svg xmlns="http://www.w3.org/2000/svg" width="106" height="43" viewBox="0 0 106 43" fill="none"> <mask id="mask0" mask-type="alpha" maskUnits="userSpaceOnUse" x="0" y="0" width="106" height="43"> <rect width="106" height="42.4" fill="#C4C4C4"/> </mask> <g mask="url(#mask0)"> <path fill-rule="evenodd" clip-rule="evenodd" d="M108.138 -22.2696C107.543 -20.519 103.655 -4.24214 103.798 -4.09947C103.897 -4.00015 106.948 -3.91891 110.577 -3.91891H117.176V17.2425V38.4039H113.801C109.695 38.4039 108.922 38.8213 108.863 41.0692L108.825 42.4996H100.713H92.6013V39.4278V36.356H95.7069C99.5972 36.356 100.929 35.8065 101.834 33.8282C102.673 31.9926 105.357 16.4919 105.086 15.0454C104.879 13.944 103.646 12.532 102.276 11.8286C101.871 11.6211 100.451 11.3497 99.1187 11.2258L96.6971 11.0009V7.94443C96.6971 4.40707 96.1329 2.83669 94.5058 1.84449C93.4928 1.22672 91.976 1.20317 52.8384 1.20317C13.1557 1.20317 12.1969 1.21853 11.1297 1.86975C9.41456 2.91519 8.97973 4.12309 8.97973 7.83931V11.0988H7.83155C3.41121 11.0988 0.499475 12.9174 0.454763 15.7066C0.430188 17.2107 3.18048 32.5882 3.69996 33.8548C4.43924 35.6566 5.61029 36.1635 9.47599 36.356L12.9048 36.5266L13.0031 39.4851L13.1011 42.4433L8.83808 42.5569C4.30511 42.6774 3.35694 42.9908 4.0754 44.1304C4.42388 44.6827 8.29335 44.7239 68.064 44.8113C103.054 44.8629 132.027 44.8216 132.45 44.7195C132.977 44.5925 133.218 44.2819 133.218 43.7277C133.218 42.7747 132.5 42.5112 129.89 42.5044L128.098 42.4996V41.2896C128.098 40.4599 127.834 39.8162 127.26 39.2418C126.482 38.4632 126.179 38.4039 122.994 38.4039H119.565V17.2425V-3.91891H126.391C130.146 -3.91891 133.21 -4.03428 133.201 -4.1749C133.193 -4.31552 132.141 -8.50103 130.865 -13.4757L128.543 -22.5205L118.414 -22.6109C110.487 -22.6816 108.252 -22.6075 108.138 -22.2696ZM127.338 -18.8414C127.919 -16.3386 127.911 -16.3106 126.477 -16.0447C125.773 -15.9143 124.701 -15.4314 124.096 -14.9723L122.996 -14.1371L121.561 -15.0863C119.56 -16.411 117.178 -16.4089 115.171 -15.0809L113.729 -14.1262L112.695 -14.9955C112.127 -15.4741 111.06 -15.9614 110.323 -16.0792C109.587 -16.197 108.985 -16.4659 108.986 -16.6765C108.988 -17.0339 109.527 -19.2565 109.845 -20.2166C109.954 -20.5425 111.983 -20.6432 118.453 -20.6432H126.919L127.338 -18.8414ZM111.483 -13.2156C111.85 -12.8893 112.362 -12.123 112.62 -11.5131C113.301 -9.90315 114.587 -9.96048 115.137 -11.6247C115.561 -12.9094 117.153 -14.1559 118.37 -14.1559C119.563 -14.1559 121.189 -12.9006 121.651 -11.622C122.009 -10.6318 122.265 -10.4038 123.019 -10.4038C123.765 -10.4038 123.99 -10.5977 124.163 -11.3848C124.282 -11.9244 124.724 -12.69 125.145 -13.0862C125.987 -13.8767 127.715 -14.3293 128.297 -13.9115C128.63 -13.6736 130.654 -6.28079 130.415 -6.17942C130.361 -6.15621 124.979 -6.17976 118.456 -6.2313C108.144 -6.31322 106.595 -6.39274 106.595 -6.84123C106.595 -7.76584 108.051 -13.2931 108.418 -13.761C108.869 -14.3361 110.563 -14.0344 111.483 -13.2156ZM93.8113 4.08658C94.5929 4.86784 94.6492 5.16069 94.6468 8.43831C94.6451 11.3702 94.5325 12.1218 93.9669 12.9761C93.5942 13.5392 93.1938 14.7099 93.0778 15.5775C92.9614 16.4452 92.7587 17.3292 92.6269 17.5421C92.4508 17.8275 81.9619 17.9295 52.8476 17.9295C31.1005 17.9295 13.2205 17.8428 13.1147 17.7367C13.0086 17.6305 12.7314 16.611 12.499 15.4711C12.2662 14.3311 11.8403 13.1375 11.5519 12.8191C11.1491 12.374 11.0276 11.3924 11.0276 8.58201C11.0276 5.15352 11.0802 4.8716 11.8655 4.08658L12.7031 3.24865H52.8384H92.9737L93.8113 4.08658ZM9.70058 14.1707C10.1003 14.7229 10.704 17.222 11.4116 21.2543L12.5048 27.4846L52.7998 27.3979L93.0952 27.3112L93.6594 24.2394C93.9696 22.5499 94.4888 19.6818 94.8134 17.866C95.5926 13.5037 96.0479 12.9849 98.8221 13.2989C103.555 13.8345 103.569 13.8891 101.662 24.5807C100.368 31.8373 100.03 33.2029 99.4047 33.7108C98.7125 34.2729 95.9766 34.3081 52.7852 34.3081H6.90079L6.14035 33.5402C5.50141 32.8944 5.14576 31.4295 3.90884 24.3428C3.09959 19.7064 2.53745 15.5977 2.65998 15.2123C2.9204 14.3915 3.89826 13.8007 5.5666 13.4563C7.70424 13.015 9.02956 13.244 9.70058 14.1707ZM51.6438 22.5328V25.0927H32.9153H14.1868L13.9632 23.6421C13.8404 22.8444 13.6499 21.6925 13.5403 21.0822L13.3407 19.973H32.4924H51.6438V22.5328ZM92.1453 20.7409C92.0416 21.1635 91.8518 22.3154 91.7231 23.3008L91.4893 25.0927H72.7612H54.033V22.5328V19.973H73.1834H92.3341L92.1453 20.7409ZM16.8357 36.612C16.8542 37.4059 15.6165 42.1583 15.3916 42.1583C15.2442 42.1583 15.1234 40.8528 15.1234 39.2571C15.1234 36.3901 15.1333 36.356 15.9766 36.356C16.4459 36.356 16.8326 36.471 16.8357 36.612ZM87.0983 39.2448C87.497 40.8337 87.8229 42.216 87.8229 42.3167C87.8229 42.4173 72.0799 42.4996 52.8384 42.4996C25.0774 42.4996 17.8542 42.4116 17.8559 42.073C17.8569 41.8385 18.0006 41.1088 18.1754 40.4517C18.3498 39.7947 18.6621 38.6042 18.8693 37.8066L19.2454 36.356H52.8097H86.3737L87.0983 39.2448ZM90.5534 39.2571C90.5534 40.8528 90.4279 42.1583 90.2746 42.1583C90.0142 42.1583 88.8329 37.724 88.8424 36.7826C88.8448 36.5481 89.2309 36.356 89.7002 36.356C90.5435 36.356 90.5534 36.3901 90.5534 39.2571ZM125.987 41.561L126.095 42.4996H118.564H111.032V41.4689V40.4384L118.456 40.5302L125.879 40.6224L125.987 41.561ZM-3.24302 42.7433C-4.8192 43.0443 -4.4226 44.8888 -2.78156 44.8888C-1.55557 44.8888 -0.918339 44.5301 -0.918339 43.8403C-0.918339 43.3184 -1.95627 42.3778 -2.34639 42.546C-2.40578 42.5716 -2.80921 42.6604 -3.24302 42.7433ZM0.702896 42.7348C-0.112159 42.9478 -0.0838294 44.4413 0.740099 44.7028C1.62546 44.984 2.49479 44.5843 2.49479 43.8966C2.49479 43.3269 1.85346 42.4621 1.48792 42.5392C1.38484 42.561 1.03158 42.6491 0.702896 42.7348ZM134.839 42.7348C133.893 42.9822 134.065 44.4902 135.068 44.742C136.224 45.0322 137.006 44.8216 137.447 44.1007C137.75 43.6068 137.693 43.3853 137.163 42.9914C136.501 42.5 135.964 42.4409 134.839 42.7348Z" fill="black"/> </g> </svg>