<svg xmlns="http://www.w3.org/2000/svg" width="41" height="66" viewBox="0 0 41 66" fill="none"> <path fill-rule="evenodd" clip-rule="evenodd" d="M4.02984 0.21192C2.43396 0.767184 1.19277 1.87798 0.474618 3.39401L0.0521344 4.2858L0.0114116 29.8205C-0.01923 49.027 0.00942179 55.536 0.126815 56.0848C0.486291 57.7654 1.66606 59.2472 3.25213 60.0101C3.82358 60.2849 4.52926 60.5121 4.94432 60.555L5.65637 60.6285L5.71765 61.9713C5.76448 62.9942 5.84646 63.4453 6.06214 63.865C6.40703 64.5363 7.12306 65.1481 7.80168 65.3514C8.3283 65.5091 11.875 65.5642 12.2498 65.4204C12.7306 65.2359 12.8526 64.6631 12.8526 62.5899V60.5925L19.9825 60.6268L27.1123 60.6611L27.181 62.7171C27.2525 64.8542 27.3138 65.1585 27.7161 65.3738C28.1061 65.5825 31.842 65.5359 32.3689 65.3159C33.0435 65.0338 33.5076 64.6201 33.8999 63.9506C34.2046 63.4308 34.2624 63.1569 34.3144 61.9869L34.3749 60.6274L35.1165 60.5403C36.9059 60.3299 38.7113 58.9539 39.5698 57.1459L39.9791 56.2837L40.0198 30.749C40.0505 11.5426 40.0218 5.03353 39.9044 4.48477C39.5466 2.81155 38.2694 1.2418 36.6367 0.468461L35.7344 0.04107L20.2146 0.0108264C5.75042 -0.017295 4.64957 -0.00363227 4.02984 0.21192ZM35.7353 2.54161C36.4203 2.86063 37.0796 3.50437 37.4895 4.25436C37.7049 4.64846 37.7272 5.30745 37.7614 12.2778L37.7988 19.8719H20.0156H2.23247L2.26987 12.2778C2.30662 4.78111 2.31086 4.67698 2.59393 4.15315C2.97516 3.448 3.63243 2.83583 4.36319 2.50553C4.95214 2.23918 5.16054 2.23559 20.0156 2.234L35.0712 2.23241L35.7353 2.54161ZM7.25014 10.984C6.19121 11.3029 5.39678 12.2061 5.14568 13.3769C5.06662 13.7456 5.02231 14.6367 5.04738 15.3574C5.08784 16.5279 5.12711 16.704 5.41429 17.0096L5.73596 17.3516H11.6217H17.5074L17.8329 17.026C18.1458 16.7132 18.1586 16.6319 18.1586 14.9455C18.1586 13.4372 18.1197 13.1103 17.8816 12.6185C17.5423 11.9177 16.7429 11.212 16.055 11.0059C15.4571 10.8267 7.83524 10.8077 7.25014 10.984ZM15.6087 13.3134C15.8571 13.4873 15.9035 13.644 15.9035 14.3083V15.0966H11.6666C9.08067 15.0966 7.39883 15.0466 7.35042 14.9683C7.21896 14.7556 7.4369 13.501 7.64078 13.2971C7.93513 13.0027 15.1865 13.0176 15.6087 13.3134ZM37.7896 38.7411C37.7892 49.777 37.7429 55.5211 37.6517 55.8493C37.457 56.5506 36.7618 57.4051 36.0055 57.8727L35.3573 58.2734H20.0156H4.67398L4.02573 57.8727C3.26951 57.4051 2.5743 56.5506 2.37957 55.8493C2.28831 55.5211 2.24202 49.777 2.24162 38.7411L2.24082 22.1269H20.0156H37.7904L37.7896 38.7411ZM5.64403 25.0628C5.2189 25.3098 5.02643 26.0192 5.02643 27.3381C5.02643 29.3916 5.5598 30.5383 6.79263 31.135C7.33742 31.3987 7.57459 31.4123 11.6734 31.4123H15.9815L16.6996 30.9812C17.2534 30.6486 17.5022 30.3874 17.7881 29.8385C18.1352 29.1718 18.1586 29.0237 18.1586 27.4903C18.1586 25.7262 18.0479 25.2908 17.5408 25.0598C17.099 24.8585 5.99064 24.8613 5.64403 25.0628ZM32.5087 27.3665L32.0866 27.7217V39.3599V50.9979L32.385 51.2711C32.5493 51.4213 32.8148 51.584 32.9753 51.6327C33.3779 51.7546 34.0056 51.4026 34.1932 50.9496C34.3072 50.6741 34.338 47.6026 34.3113 39.1414C34.2759 27.9003 34.2708 27.7009 34.0096 27.4397C33.5551 26.9854 32.9942 26.9581 32.5087 27.3665ZM15.9035 27.954C15.9035 29.2127 16.1019 29.1573 11.5993 29.1573C8.24725 29.1573 7.68827 29.1289 7.5409 28.9514C7.37589 28.7524 7.24483 27.4698 7.36885 27.267C7.40241 27.2124 9.33629 27.1675 11.6666 27.1675H15.9035V27.954ZM10.5692 61.9544L10.6072 63.2477H9.49122C8.13131 63.2477 8.03753 63.1652 7.96643 61.9068C7.89003 60.5543 7.86496 60.5783 9.30206 60.6229L10.5313 60.6611L10.5692 61.9544ZM32.0595 61.6367C32.1185 63.1037 31.9843 63.2477 30.5581 63.2477H29.4336V62.0097C29.4336 61.3287 29.4755 60.7298 29.5267 60.6786C29.5778 60.6274 30.1599 60.6025 30.8201 60.6233L32.0203 60.6611L32.0595 61.6367Z" fill="black"/> </svg>