<svg xmlns="http://www.w3.org/2000/svg" width="48" height="42" viewBox="0 0 48 42" fill="none"> <path fill-rule="evenodd" clip-rule="evenodd" d="M2.30066 0.314289C2.06891 0.608897 2.0534 0.780772 2.0534 3.05761V5.48664H1.40205C0.615905 5.48664 0.264282 5.77421 0.264282 6.41734C0.264282 6.76467 0.398586 6.96398 1.15884 7.74535L2.0534 8.6646V25.0104V41.3562L2.30066 41.6705L2.5478 41.9847H8.44701H14.3461L16.2806 40.5379C17.3447 39.7421 18.2823 39.0073 18.3642 38.9048C18.4801 38.7603 18.5138 36.9492 18.5157 30.7799C18.517 26.4135 18.5683 22.494 18.6296 22.0699C18.879 20.344 20.0733 18.7304 21.6943 17.9293C23.2813 17.1449 25.3617 17.2684 26.8861 18.2375C28.1827 19.0617 29.1523 20.5614 29.3722 22.0831C29.4325 22.5 29.4829 26.4135 29.4842 30.7799C29.4861 36.948 29.5199 38.7607 29.6357 38.9071C29.7178 39.0107 30.6594 39.7456 31.7286 40.5401L33.6723 41.9847H39.5622H45.4522L45.6993 41.6705L45.9465 41.3562V25.0104V8.6646L46.8411 7.74535C47.6014 6.96398 47.7357 6.76467 47.7357 6.41734C47.7357 5.77421 47.384 5.48664 46.5979 5.48664H45.9465V3.05761C45.9465 0.780772 45.931 0.608897 45.6993 0.314289L45.4522 0H24H2.5478L2.30066 0.314289ZM44.0382 3.69752V5.48664H24H3.9618V3.69752V1.9084H24H44.0382V3.69752ZM6.93306 2.96649C6.39012 3.40613 6.66075 4.40565 7.37092 4.58385C7.70656 4.66806 8.31068 4.39504 8.42018 4.10961C8.56545 3.73092 8.49043 3.2166 8.2557 2.98187C7.95167 2.67784 7.29887 2.67021 6.93306 2.96649ZM10.5903 2.93058C10.1025 3.4183 10.2199 4.22973 10.8141 4.47806C11.7906 4.88598 12.5913 3.87989 11.9445 3.05761C11.7539 2.81512 11.5922 2.74332 11.2374 2.74332C10.9785 2.74332 10.6957 2.82515 10.5903 2.93058ZM14.2194 2.98187C13.9129 3.28841 13.8958 4.06095 14.1896 4.32574C14.5453 4.64635 14.9603 4.6782 15.3824 4.41758C15.7156 4.21171 15.77 4.11093 15.77 3.69931C15.77 3.08636 15.449 2.74332 14.8755 2.74332C14.617 2.74332 14.3671 2.83421 14.2194 2.98187ZM17.8064 3.05761C17.5265 3.41341 17.4988 3.67307 17.6949 4.10341C18.0725 4.93225 19.4525 4.60496 19.4637 3.6838C19.47 3.16198 19.047 2.74332 18.5133 2.74332C18.1587 2.74332 17.997 2.81512 17.8064 3.05761ZM21.4952 2.98187C21.2605 3.2166 21.1854 3.73092 21.3307 4.10961C21.4402 4.39504 22.0443 4.66806 22.38 4.58385C23.0511 4.41544 23.3341 3.49809 22.8722 2.98784C22.5745 2.65888 21.8214 2.65565 21.4952 2.98187ZM25.1277 2.98784C24.8206 3.32717 24.8398 3.99392 25.1661 4.32025C25.5172 4.67128 26.2353 4.65637 26.5305 4.29175C26.8176 3.93726 26.8047 3.28185 26.5047 2.98187C26.1785 2.65565 25.4254 2.65888 25.1277 2.98784ZM28.7797 3.05761C28.1627 3.84184 28.8817 4.85019 29.8236 4.52183C30.4282 4.31107 30.6109 3.58814 30.1936 3.05761C30.003 2.81512 29.8412 2.74332 29.4866 2.74332C29.132 2.74332 28.9703 2.81512 28.7797 3.05761ZM32.4685 2.98187C32.1423 3.30809 32.1455 4.06119 32.4745 4.3589C32.8286 4.67939 33.5152 4.65112 33.7959 4.30451C34.3181 3.65971 33.924 2.74332 33.1245 2.74332C32.866 2.74332 32.6162 2.83421 32.4685 2.98187ZM36.0554 3.05761C35.7755 3.41341 35.7478 3.67307 35.9439 4.10341C36.3215 4.93225 37.7016 4.60496 37.7128 3.6838C37.7191 3.16198 37.296 2.74332 36.7624 2.74332C36.4078 2.74332 36.246 2.81512 36.0554 3.05761ZM39.7443 2.98187C39.1833 3.54282 39.6009 4.58015 40.3875 4.58015C41.2178 4.58015 41.6714 3.59566 41.1213 2.98784C40.8236 2.65888 40.0705 2.65565 39.7443 2.98187ZM44.2079 7.60377C44.156 7.71863 44.0916 8.09435 44.0649 8.4387L44.0161 9.06489H23.9889H3.9618V8.49511C3.9618 8.17236 3.88129 7.81024 3.77609 7.66019L3.5905 7.39504H23.9463C43.2893 7.39504 44.2976 7.40542 44.2079 7.60377ZM13.0267 16.4003V21.8273H8.49425H3.9618V16.4003V10.9733H8.49425H13.0267V16.4003ZM20.6603 11.0347C20.6603 11.0685 20.5721 11.4131 20.4646 11.8002C20.2781 12.4708 20.2426 12.5142 19.7191 12.7131C18.5787 13.1464 17.4956 13.8991 16.2589 15.118C15.5765 15.7904 14.9996 16.3407 14.9767 16.3407C14.9538 16.3407 14.9351 15.133 14.9351 13.657V10.9733H17.7977C19.3721 10.9733 20.6603 11.001 20.6603 11.0347ZM24.9365 11.3C25.5302 11.7432 25.7297 12.1381 25.7253 12.8609C25.7179 14.0774 24.763 15.5057 23.9573 15.5057C23.7014 15.5057 23.0698 14.9426 22.7403 14.4208C22.1141 13.4288 22.0817 12.3603 22.6569 11.6767C23.2589 10.9612 24.2609 10.7956 24.9365 11.3ZM33.061 13.7464L33.0574 16.5196L32.7514 16.1617C31.3666 14.5421 30.0837 13.5307 28.5152 12.822C27.729 12.4667 27.7219 12.4593 27.5315 11.7802C27.426 11.404 27.3397 11.0685 27.3397 11.0347C27.3397 11.001 28.6278 10.9733 30.2023 10.9733H33.0649L33.061 13.7464ZM44.0382 16.4003V21.8273H39.5057H34.9733V16.4003V10.9733H39.5057H44.0382V16.4003ZM6.28766 13.7351C5.77729 14.0142 5.75093 14.1485 5.75093 16.4741V18.7089L6.06521 18.956C6.35624 19.185 6.5354 19.2033 8.49425 19.2033C10.4531 19.2033 10.6322 19.185 10.9233 18.956L11.2376 18.7089V16.5206C11.2376 15.3172 11.2042 14.2456 11.1635 14.1394C10.994 13.6979 10.4906 13.5972 8.47039 13.6009C7.29494 13.6032 6.43187 13.6561 6.28766 13.7351ZM37.4185 13.7211C36.7955 13.9127 36.7624 14.0494 36.7624 16.4286C36.7624 19.3782 36.5908 19.2033 39.4842 19.2033C41.4648 19.2033 41.6433 19.1852 41.9347 18.956L42.249 18.7089V16.5031C42.249 15.2898 42.1964 14.1991 42.1323 14.0791C42.0681 13.9591 41.8668 13.8092 41.685 13.7459C41.2575 13.5971 37.8854 13.5775 37.4185 13.7211ZM20.9852 15.1719C21.1967 15.5777 21.3577 15.916 21.343 15.9239C19.9734 16.659 19.333 17.1102 18.6848 17.7974C17.8626 18.669 17.1014 20.0765 16.8438 21.2011L16.7005 21.8273H15.8155H14.9306L15.0031 21.4993C15.436 19.5402 15.9971 18.2906 16.9978 17.0563C17.6869 16.2064 18.9539 15.1864 19.885 14.732C20.213 14.5719 20.5082 14.4394 20.541 14.4376C20.5738 14.4357 20.7737 14.7661 20.9852 15.1719ZM28.2117 14.7994C29.2759 15.3403 30.2683 16.1658 31.0646 17.1727C32.0893 18.4684 32.5337 19.4645 32.9951 21.4993L33.0694 21.8273H32.1821H31.2947L31.2123 21.4397C30.7526 19.2791 29.3047 17.3265 27.4313 16.3405C27.02 16.1242 26.6643 15.9314 26.6408 15.9122C26.6172 15.893 26.7018 15.7266 26.8287 15.5425C26.9556 15.3582 27.129 15.0332 27.2141 14.8199C27.299 14.6068 27.3957 14.4323 27.4289 14.4323C27.4619 14.4323 27.8143 14.5975 28.2117 14.7994ZM9.32917 16.4003V17.2949H8.49425H7.65932V16.4003V15.5057H8.49425H9.32917V16.4003ZM40.3406 16.4003V17.2949H39.5057H38.6708V16.4003V15.5057H39.5057H40.3406V16.4003ZM13.0267 31.906V40.0763H8.49425H3.9618V31.906V23.7357H8.49425H13.0267V31.906ZM16.6049 30.8095V37.8834L15.8427 38.4431C15.4233 38.751 15.0476 39.0029 15.0077 39.0029C14.9678 39.0029 14.9351 35.5678 14.9351 31.3693V23.7357H15.77H16.6049V30.8095ZM33.0649 31.3693C33.0649 35.5678 33.0194 39.0029 32.9638 39.0029C32.9083 39.0029 32.7493 38.9089 32.6105 38.7941C32.4718 38.6794 32.1416 38.4343 31.8766 38.2497L31.395 37.9139V30.8248V23.7357H32.2299H33.0649V31.3693ZM44.0382 31.906V40.0763H39.5057H34.9733V31.906V23.7357H39.5057H44.0382V31.906ZM7.11364 25.8714C4.55126 27.1685 4.002 31.3067 6.09384 33.5548C8.1437 35.7579 11.166 34.6608 12.0138 31.4059C12.573 29.2592 11.6061 26.7406 9.88571 25.862C9.58788 25.7099 9.07822 25.5876 8.61352 25.5564C7.92733 25.5106 7.75498 25.5468 7.11364 25.8714ZM38.6701 25.6362C37.3781 26.0292 36.4176 27.1714 35.9861 28.8279C35.661 30.0762 35.8242 31.4201 36.4508 32.6535C37.5649 34.846 40.1074 35.3714 41.7543 33.7492C44.1391 31.4002 43.4103 26.7365 40.4959 25.6971C40.002 25.5209 39.1433 25.4923 38.6701 25.6362ZM9.22552 27.7246C9.89072 28.1767 10.2163 28.9617 10.2179 30.1169C10.219 30.9232 10.1693 31.1662 9.89764 31.6849C9.55663 32.3361 8.96562 32.8006 8.47803 32.8006C8.01631 32.8006 7.35159 32.2628 7.04589 31.6421C6.63332 30.8043 6.64441 29.3918 7.06999 28.5638C7.40658 27.9091 8.00176 27.4332 8.48423 27.4332C8.6561 27.4332 8.98971 27.5643 9.22552 27.7246ZM40.5417 27.9525C41.5609 29.0648 41.5166 31.2668 40.4533 32.33C40.0624 32.721 39.9022 32.8006 39.5057 32.8006C38.4575 32.8006 37.6023 31.3129 37.7619 29.7673C37.9679 27.7726 39.4751 26.7885 40.5417 27.9525ZM5.98947 36.7367C5.6598 37.0663 5.66648 37.8161 6.002 38.1196C6.23029 38.3263 6.45811 38.3469 8.51727 38.3469C10.753 38.3469 10.7844 38.3433 11.0095 38.0653C11.309 37.6955 11.3019 37.0892 10.9944 36.7592C10.7607 36.5084 10.6625 36.4981 8.48959 36.4981C6.38702 36.4981 6.21121 36.5149 5.98947 36.7367ZM37.0235 36.7413C36.6944 37.0478 36.6787 37.6802 36.9904 38.0653C37.2156 38.3435 37.2458 38.3469 39.5057 38.3469C41.7656 38.3469 41.7958 38.3435 42.021 38.0653C42.3328 37.6802 42.317 37.0478 41.9879 36.7413C41.7446 36.5146 41.5762 36.4981 39.5057 36.4981C37.4352 36.4981 37.2668 36.5146 37.0235 36.7413Z" fill="#EA5B5B"/> </svg>