<svg xmlns="http://www.w3.org/2000/svg" width="68" height="64" viewBox="0 0 68 64" fill="none"> <path fill-rule="evenodd" clip-rule="evenodd" d="M50.0678 0.416151C48.1965 1.0014 47.1593 1.80405 44.0045 5.10768L40.9963 8.25758L39.4163 7.81409C36.2746 6.93254 34.3882 7.42338 32.4341 9.63024C31.7586 10.3932 31.206 11.1128 31.206 11.2293C31.206 11.346 33.1875 13.4201 35.6094 15.8386L40.0125 20.2358L41.7016 18.4618C43.0911 17.0023 43.4437 16.4394 43.6913 15.2852C43.9974 13.8573 43.7718 12.0186 43.1477 10.8519C42.9012 10.3915 43.2361 9.93334 45.6582 7.41739C49.2198 3.71761 50.5717 2.87986 52.9726 2.88585C55.8907 2.89319 58.0818 4.32054 59.2664 6.98559C59.7211 8.00863 59.7619 9.17396 59.7823 21.6375L59.8041 35.1777L51.0147 35.2349C42.4909 35.2898 23.7446 34.9791 22.0912 34.7552C19.7333 34.436 15.5119 33.2846 10.4643 31.5841C7.35871 30.5376 4.44361 29.6817 3.98624 29.6817C2.20736 29.6817 0.373251 31.3199 0.0570909 33.191C-0.0767739 33.9841 0.0179111 34.5941 0.414064 35.4898C0.965848 36.7368 1.40934 37.1014 3.31746 37.8757C4.54292 38.3731 4.08392 37.171 7.9309 49.9518C9.63876 55.6256 10.2118 56.8396 11.903 58.3676C12.9851 59.3452 15.4526 60.691 16.1734 60.6964C16.3992 60.6983 16.5135 61.1513 16.5135 62.0459C16.5135 63.6188 16.8188 63.8912 18.4126 63.7391L19.5064 63.6349V62.303V60.9712H30.7829H42.0593L42.1423 62.2636L42.2253 63.556L43.6538 63.6382L45.0822 63.7206V62.3738V61.027L47.3394 60.9312C48.8647 60.8662 49.8232 60.6863 50.2964 60.3762C50.9067 59.9762 62.6212 46.131 63.9367 44.255C64.2055 43.8716 64.6689 43.5579 64.9666 43.5579C66.478 43.5579 68 41.5143 68 39.4848C68 38.4025 67.8408 37.9644 67.1239 37.0722C66.2124 35.9379 65.4838 35.5344 63.8287 35.2479L62.8495 35.0782L62.6566 27.0917C62.5505 22.6992 62.548 16.863 62.6514 14.1223C62.8712 8.27962 62.572 6.53094 60.9457 4.15539C58.6267 0.768499 54.0133 -0.817473 50.0678 0.416151ZM39.2743 10.7743C40.4889 11.5702 41.0499 12.7935 40.8878 14.2927C40.8078 15.0316 40.5471 15.8275 40.3082 16.0612C39.9134 16.4476 39.6569 16.2533 37.4546 13.9009C36.1236 12.4792 35.0304 11.2184 35.0249 11.0989C35.0061 10.6805 36.7924 10.0882 37.6968 10.213C38.1988 10.2822 38.9086 10.5349 39.2743 10.7743ZM27.6833 17.6687C25.9782 19.4285 25.0112 21.2931 24.8985 23.0382L24.812 24.376H26.1648H27.5179L27.713 23.2325C27.9679 21.7396 28.3039 21.1453 29.7963 19.5498L31.0337 18.227L30.0455 17.2388L29.0573 16.2506L27.6833 17.6687ZM32.5612 20.8964C30.8302 22.7903 30.6602 23.2224 30.4637 26.2292L30.307 28.6265L31.6407 28.5419L32.9745 28.4573L33.045 26.9608C33.1522 24.6895 33.3037 24.301 34.6413 22.8712C36.0297 21.3869 36.0496 20.8958 34.761 19.943L33.9681 19.3569L32.5612 20.8964ZM24.676 27.2329V28.5933H26.0203C26.7599 28.5933 27.4431 28.4663 27.5391 28.3112C27.6349 28.1561 27.6313 27.5439 27.5312 26.9508L27.3489 25.8725H26.0124H24.676V27.2329ZM10.0148 34.4328C12.8319 35.3998 16.3954 36.4318 17.9338 36.7264C19.4721 37.0208 21.4654 37.4132 22.3633 37.5982C23.5433 37.8412 29.4627 37.9609 43.7218 38.0305C54.5711 38.0833 63.7199 38.187 64.0521 38.2607C64.9617 38.4623 65.3167 39.3183 64.8558 40.1977L64.4771 40.9206L44.9168 40.9048C25.5548 40.8896 22.7902 40.7848 18.9209 39.9204C16.9768 39.4862 5.97625 35.9118 4.06569 35.0937C2.9107 34.599 2.67915 34.1348 3.07449 33.105C3.36208 32.3557 4.72222 32.6161 10.0148 34.4328ZM12.82 41.0936C20.8853 43.7383 21.9024 43.8229 45.7235 43.8273C58.4951 43.8297 60.3575 43.8814 60.2239 44.2294C59.9619 44.9118 49.1868 57.6746 48.6136 57.9813C48.243 58.1796 43.1458 58.2466 32.4967 58.193C15.2124 58.1056 15.824 58.169 13.8367 56.2639C12.5065 54.9889 12.1544 54.1392 10.0352 47.092C8.97733 43.5734 8.02994 40.482 7.93008 40.2219C7.6512 39.4946 8.29195 39.6089 12.82 41.0936ZM14.019 45.287C13.47 45.4584 12.9476 45.6722 12.8575 45.7623C12.5487 46.0719 14.8562 53.1551 15.4902 53.8434C16.7075 55.1652 17.3327 55.2575 25.0754 55.2575H32.2943V53.897V52.5366L25.5602 52.5328C21.8564 52.5309 18.5484 52.4547 18.2088 52.3639C17.6878 52.2243 17.4133 51.629 16.4536 48.5582C15.8278 46.5562 15.2486 44.9311 15.1664 44.9469C15.0842 44.9627 14.5678 45.1156 14.019 45.287Z" fill="black"/> </svg>