<svg xmlns="http://www.w3.org/2000/svg" width="50" height="67" viewBox="0 0 50 67" fill="none"> <path fill-rule="evenodd" clip-rule="evenodd" d="M0.0456044 0.201246C0.00358433 0.312011 -0.0123546 14.3488 0.0103459 31.3943L0.051722 62.3862L2.10443 62.4312L4.15713 62.4763V64.2424V66.0086H8.10155H12.046V64.2376V62.4667H24.7647H37.4834V64.2405V66.0144L41.3876 65.9712L45.2917 65.9281L45.3375 64.1974L45.3832 62.4667H47.3902H49.3972V31.2333V0H24.7597C5.19781 0 0.1063 0.0415371 0.0456044 0.201246ZM47.4652 6.92333V11.9149L24.7244 11.874L1.98368 11.8332L1.94102 7.08578C1.91751 4.47458 1.93329 2.24671 1.97611 2.13514C2.03842 1.97285 6.63294 1.93196 24.7597 1.93196H47.4652V6.92333ZM7.27354 5.36312C6.18939 6.35663 6.41769 8.11165 7.71854 8.78445C9.07477 9.48575 10.758 8.49627 10.758 6.99771C10.758 5.58593 10.002 4.8299 8.59017 4.8299C7.98273 4.8299 7.75444 4.92231 7.27354 5.36312ZM15.3649 5.16606C14.4667 5.87251 14.2365 6.90401 14.7563 7.89141C15.5262 9.35358 17.6401 9.35921 18.4594 7.90139C18.868 7.17433 18.892 6.79196 18.576 6.03576C18.1067 4.91249 16.3071 4.42499 15.3649 5.16606ZM24.1529 6.8826L24.2012 7.80833H33.056H41.9108L41.9591 6.8826L42.0074 5.95687H33.056H24.1046L24.1529 6.8826ZM8.82603 6.92285C8.82603 7.0114 8.75358 7.08385 8.66504 7.08385C8.57649 7.08385 8.50404 7.0114 8.50404 6.92285C8.50404 6.8343 8.57649 6.76185 8.66504 6.76185C8.75358 6.76185 8.82603 6.8343 8.82603 6.92285ZM16.7149 6.92285C16.7149 7.0114 16.6424 7.08385 16.5539 7.08385C16.4653 7.08385 16.3929 7.0114 16.3929 6.92285C16.3929 6.8343 16.4653 6.76185 16.5539 6.76185C16.6424 6.76185 16.7149 6.8343 16.7149 6.92285ZM47.4652 37.1907V60.5358L24.7244 60.4949L1.98368 60.4542L1.94295 37.1499L1.90206 13.8457H24.6837H47.4652V37.1907ZM22.6717 17.4862C20.2834 17.7809 18.2076 18.4005 16.1514 19.4323C10.8552 22.0897 7.35163 26.7214 6.06752 32.7628C5.75164 34.2488 5.7956 38.2861 6.14512 39.8943C8.06452 48.7266 15.6239 54.8998 24.5198 54.8998C33.2318 54.8998 40.5441 49.1387 42.8087 40.4906C43.2432 38.8316 43.4004 35.3516 43.1259 33.4689C41.9944 25.7084 35.843 19.2558 28.1598 17.7698C26.91 17.5282 23.6831 17.3614 22.6717 17.4862ZM28.7091 19.8747C33.0608 20.9861 36.6667 23.7185 39.1547 27.7904C39.9101 29.0265 40.9275 31.8918 41.1897 33.5219C41.4679 35.25 41.3161 38.6809 40.8907 40.2773C39.2866 46.3 34.7629 50.8351 28.7091 52.49C26.8902 52.9873 23.3837 53.1087 21.5528 52.7376C17.4038 51.8969 14.1381 49.9513 11.4427 46.7138C10.3772 45.4342 9.07606 43.0801 8.52062 41.4276C7.94908 39.727 7.65655 37.4698 7.75235 35.4997C7.88903 32.6858 8.41276 30.6906 9.62152 28.3785C12.1213 23.5965 16.8839 20.235 22.229 19.4799C23.9612 19.2352 26.9079 19.4147 28.7091 19.8747ZM21.2791 22.5371C17.7483 23.4627 14.7229 25.5918 12.7915 28.5104C12.1166 29.5301 11.0562 31.8696 11.1788 32.0681C11.2234 32.1402 12.5248 32.1993 14.0707 32.1993H16.8815L16.8383 36.184L16.7954 40.1686L13.9377 40.2126C12.3659 40.2367 11.08 40.2995 11.08 40.3518C11.08 40.7215 12.8292 43.9197 13.5336 44.8375C17.434 49.9212 24.8579 51.6211 30.6506 48.7573C38.3422 44.9546 40.9043 35.4027 36.133 28.3178C34.2414 25.5091 31.2079 23.4256 27.7053 22.5299C26.0488 22.1061 22.9094 22.1097 21.2791 22.5371ZM27.3406 24.4063C29.8119 24.9662 32.757 26.888 34.1516 28.8509C36.2478 31.8015 37.0143 34.8888 36.453 38.1214C35.5378 43.394 31.6627 47.2206 26.3573 48.0916C24.963 48.3204 24.5037 48.3312 23.1927 48.1655C19.7385 47.7294 16.867 46.1004 14.871 43.4449C14.4683 42.9094 14.1389 42.3696 14.1389 42.2456C14.1389 42.0626 14.5792 42.0201 16.4753 42.0201H18.8118L18.7695 36.184L18.7273 30.3478L16.4331 30.3033C14.7559 30.2706 14.1394 30.2055 14.1405 30.0618C14.1437 29.6383 15.7872 27.7064 16.9053 26.8114C19.9348 24.3863 23.5625 23.5503 27.3406 24.4063ZM10.114 63.2716V64.0766H8.10155H6.08909V63.2716V62.4667H8.10155H10.114V63.2716ZM43.4403 63.2716V64.0766H41.4278H39.4154V63.2716V62.4667H41.4278H43.4403V63.2716Z" fill="black"/> </svg>