<svg xmlns="http://www.w3.org/2000/svg" width="61" height="53" viewBox="0 0 61 53" fill="none"> <path fill-rule="evenodd" clip-rule="evenodd" d="M5.97348 0.547954C5.59253 0.9289 5.46611 6.29809 5.46611 22.111C5.46611 43.055 5.46146 43.1666 4.59937 43.1666C3.18636 43.1666 1.29811 44.361 0.611057 45.6895C-0.203686 47.2648 -0.203686 48.7928 0.611057 50.3682C1.92006 52.9 1.84142 52.8911 23.2239 52.8911C44.6063 52.8911 44.5277 52.9 45.8367 50.3682C46.3737 49.3298 46.4781 46.7553 46.4781 34.5684V20.0092L51.1932 18.8393C56.4499 17.5354 57.471 16.8504 57.471 14.6273C57.471 12.2402 58.5267 12.7983 59.1326 15.5059C59.4227 16.8027 59.5478 17.9764 59.41 18.1142C59.2726 18.2516 56.7345 19.6337 53.7702 21.1854C48.9265 23.7206 48.3663 24.1307 48.237 25.2346C48.1579 25.9103 47.9249 26.5669 47.7199 26.6937C47.1246 27.0616 50.5366 39.8831 51.3974 40.5127C52.4164 41.2572 52.9867 41.1908 53.8607 40.2251C54.5803 39.4298 54.546 39.1394 52.9749 32.7597C51.7187 27.6581 51.1691 26.0764 50.6004 25.9272C49.053 25.5213 50.0423 24.6833 55.4673 21.8044C61.8043 18.4419 61.647 18.7065 60.1161 13.9931C59.4053 11.8038 59.2865 11.6749 58.0912 11.7873C57.0207 11.888 56.7463 11.7087 56.3446 10.6437C55.5561 8.55501 54.4091 8.53303 47.218 10.4686C46.5449 10.6496 46.4781 10.2327 46.4781 5.86133C46.4781 2.68692 46.306 0.883237 45.9707 0.547954C45.2401 -0.182651 6.70408 -0.182651 5.97348 0.547954ZM45.1171 6.21141L45.2363 10.9028L41.1005 12.0144C36.1642 13.3412 35.2645 14.1238 35.6767 16.7304C35.8251 17.6664 36.2703 19.0985 36.6669 19.9124C37.3514 21.3174 37.4948 21.3909 39.5018 21.3655C40.6645 21.3512 42.4247 21.1842 43.4128 20.9943L45.2097 20.6497V34.9003V49.151L43.9738 50.3868C42.9735 51.3867 42.3748 51.6227 40.8337 51.6227C39.2794 51.6227 38.7678 51.4176 38.0529 50.5086C36.1727 48.1185 37.387 44.435 40.0553 44.435C41.9076 44.435 42.7621 45.2929 42.6006 46.9904C42.4758 48.3011 42.3308 48.4516 41.193 48.4516C39.9885 48.4516 39.9293 48.3705 40.021 46.8369C40.1005 45.5068 39.9889 45.2468 39.3868 45.3631C38.8245 45.4713 38.6562 45.9389 38.6562 47.3946C38.6562 49.0326 38.8093 49.359 39.7982 49.8334C41.5047 50.6511 43.0758 50.082 43.7827 48.3908C44.4926 46.6915 44.2114 45.259 42.932 44.057C42.0171 43.1975 41.5693 43.1734 24.4703 43.0655L6.94593 42.9552L6.836 22.6606C6.77512 11.4986 6.81782 2.12628 6.92986 1.83328C7.09095 1.41301 11.1465 1.3238 26.0664 1.41047L44.9983 1.5204L45.1171 6.21141ZM13.2406 3.83737C12.1942 4.26017 10.5398 6.2427 10.5398 7.07393C10.5398 8.06794 11.8094 7.70264 12.2339 6.58644C12.4563 6.00086 13.1176 5.33959 13.7032 5.1172C14.2888 4.89438 14.7678 4.42211 14.7678 4.0678C14.7678 3.34818 14.5369 3.31351 13.2406 3.83737ZM21.4375 4.08302C20.2173 4.74428 19.4186 5.89389 19.4186 6.98895C19.4186 7.94913 20.5488 7.80242 20.8088 6.80883C20.9297 6.34586 21.6164 5.63259 22.3347 5.22332C24.4069 4.04412 23.541 2.94356 21.4375 4.08302ZM30.5756 3.83737C29.5292 4.26017 27.8747 6.2427 27.8747 7.07393C27.8747 8.04723 28.9787 7.71406 29.4928 6.58559C29.76 5.99959 30.4564 5.33832 31.0407 5.11635C31.6246 4.89396 32.1028 4.42211 32.1028 4.0678C32.1028 3.34818 31.8719 3.31351 30.5756 3.83737ZM39.079 3.82257C37.5278 4.45762 35.9376 6.93525 36.7566 7.44135C37.187 7.70729 40.5588 4.51851 40.5588 3.84582C40.5588 3.35199 40.2409 3.34734 39.079 3.82257ZM15.4054 9.76C15.0545 10.3274 16.3385 11.8791 17.1588 11.8791C18.0065 11.8791 17.8496 11.2956 16.7148 10.2297C16.0248 9.58116 15.6079 9.43191 15.4054 9.76ZM23.8615 9.76C23.5105 10.3274 24.7946 11.8791 25.6148 11.8791C26.4626 11.8791 26.3057 11.2956 25.1709 10.2297C24.4809 9.58116 24.064 9.43191 23.8615 9.76ZM32.3222 9.75239C31.8871 10.4555 33.8189 12.4461 34.3859 11.8791C34.6831 11.5819 34.4743 11.0986 33.7251 10.3494C32.9644 9.58877 32.5357 9.40654 32.3222 9.75239ZM54.5393 10.6255C55.0018 10.8732 55.357 11.5075 55.357 12.0863C55.357 13.3001 54.9295 13.4042 47.7347 13.9466C44.0943 14.221 42.1596 14.5943 40.0908 15.4218C36.9198 16.6906 36.7511 16.7198 36.7599 16.0014C36.7756 14.7208 37.9379 14.2273 45.4684 12.3044C49.8605 11.1827 53.5144 10.2475 53.588 10.2264C53.6611 10.2052 54.0894 10.3849 54.5393 10.6255ZM21.6675 15.0535C20.3091 15.6247 19.4186 16.7845 19.4186 17.9818C19.4186 18.9742 20.427 18.7788 20.904 17.6943C21.1335 17.1722 21.8443 16.4961 22.484 16.1917C24.554 15.2061 23.801 14.1563 21.6675 15.0535ZM56.0026 14.8573C56.619 15.8543 54.9312 16.543 47.1351 18.4753C40.2269 20.1876 38.8418 20.4176 38.2732 19.9454C37.0584 18.937 37.5586 18.1958 40.3301 16.8986C42.7236 15.7786 43.7798 15.5702 48.8754 15.2112C52.0731 14.9859 54.776 14.7148 54.8822 14.6087C55.209 14.2819 55.7168 14.3944 56.0026 14.8573ZM12.0775 15.79C10.7381 17.0073 10.2091 18.644 11.1545 18.644C11.524 18.644 12.0449 18.1637 12.3126 17.5768C12.5798 16.99 13.2419 16.3984 13.7831 16.2627C14.3247 16.1266 14.7678 15.7507 14.7678 15.4273C14.7678 14.5233 13.2449 14.7288 12.0775 15.79ZM28.9694 16.1397C28.3673 16.8551 27.8747 17.7113 27.8747 18.0423C27.8747 18.9573 29.0493 18.7602 29.3558 17.7937C29.5046 17.3261 30.1832 16.6551 30.8644 16.3029C32.3666 15.5262 32.4693 14.8387 31.0834 14.8387C30.464 14.8387 29.6344 15.3495 28.9694 16.1397ZM15.1906 21.7495C15.1906 22.0623 15.5758 22.6665 16.0464 23.0923C17.1972 24.1341 17.9642 23.3984 17.0653 22.1148C16.3427 21.0831 15.1906 20.8586 15.1906 21.7495ZM23.6467 21.7495C23.6467 22.0623 24.0319 22.6665 24.5024 23.0923C25.6533 24.1341 26.4203 23.3984 25.5214 22.1148C24.7988 21.0831 23.6467 20.8586 23.6467 21.7495ZM32.1028 21.7495C32.1028 22.4264 33.4422 23.7176 34.1445 23.7176C34.8954 23.7176 34.7368 22.6682 33.8663 21.8805C32.9319 21.0345 32.1028 20.9732 32.1028 21.7495ZM12.5481 26.2883C11.3613 26.9795 10.3618 29.2115 10.9795 29.7912C11.3617 30.1497 11.5384 30.143 11.6779 29.7637C12.0581 28.7304 13.5801 27.1 14.1645 27.1C14.4964 27.1 14.7678 26.8146 14.7678 26.4658C14.7678 25.742 13.641 25.6515 12.5481 26.2883ZM20.5332 26.9461C19.4043 28.075 19.0838 29.3802 19.8233 29.8373C20.0461 29.9747 20.531 29.502 20.9006 28.787C21.2705 28.0716 22.0396 27.3093 22.61 27.0924C23.1803 26.8755 23.6467 26.503 23.6467 26.265C23.6467 25.4109 21.6265 25.8532 20.5332 26.9461ZM29.1106 27.0675C27.8468 28.3312 27.5416 29.3811 28.3013 29.8508C28.536 29.9958 29.0594 29.5261 29.464 28.8069C29.8691 28.0877 30.6284 27.3888 31.1515 27.2539C31.6745 27.1186 32.1028 26.7436 32.1028 26.4202C32.1028 25.4084 30.4018 25.7762 29.1106 27.0675ZM37.7916 26.8696C37.2208 27.4404 36.7536 28.2014 36.7536 28.5608C36.7536 28.9202 36.7536 29.357 36.7536 29.5312C36.7536 30.2554 37.6647 29.7722 38.1493 28.7913C38.4364 28.2099 39.0959 27.5465 39.6151 27.3169C40.1339 27.0874 40.5588 26.6591 40.5588 26.3656C40.5588 25.4672 38.8896 25.7712 37.7916 26.8696ZM51.4976 32.5217C52.8696 37.7073 53.095 39.3614 52.4303 39.3614C51.9631 39.3614 51.515 38.0105 50.0905 32.3086C48.8302 27.2641 48.8568 27.5228 49.595 27.5228C49.9789 27.5228 50.6216 29.2111 51.4976 32.5217ZM15.4054 33.0142C15.0545 33.5816 16.3385 35.1333 17.1588 35.1333C18.0065 35.1333 17.8496 34.5498 16.7148 33.484C16.0248 32.8354 15.6079 32.6861 15.4054 33.0142ZM23.8302 33.0645C23.5034 33.593 24.8318 35.1333 25.6148 35.1333C26.2913 35.1333 26.3196 34.9097 25.7725 33.8869C25.2656 32.9398 24.1887 32.484 23.8302 33.0645ZM32.2863 33.0645C31.9594 33.593 33.2879 35.1333 34.0709 35.1333C34.7474 35.1333 34.7757 34.9097 34.2286 33.8869C33.7217 32.9398 32.6448 32.484 32.2863 33.0645ZM12.5481 37.2812C11.3613 37.9724 10.3618 40.2044 10.9795 40.7841C11.3617 41.1426 11.5384 41.1359 11.6779 40.7566C12.0581 39.7233 13.5801 38.0929 14.1645 38.0929C14.4964 38.0929 14.7678 37.8075 14.7678 37.4587C14.7678 36.7349 13.641 36.6444 12.5481 37.2812ZM20.7196 37.9192C19.9294 38.5842 19.4186 39.4138 19.4186 40.0332C19.4186 41.4014 20.1032 41.3223 20.8558 39.8666C21.1932 39.2142 21.9698 38.4523 22.5816 38.1733C23.1939 37.8946 23.5773 37.4769 23.434 37.2456C22.9994 36.5421 22.087 36.7683 20.7196 37.9192ZM29.1106 38.0604C27.854 39.317 27.4426 41.0547 28.4032 41.05C28.6941 41.0483 29.2662 40.4594 29.675 39.741C30.0843 39.0227 30.7976 38.3356 31.2605 38.2147C31.7239 38.0934 32.1028 37.731 32.1028 37.4093C32.1028 36.4005 30.3997 36.7713 29.1106 38.0604ZM38.3839 37.4655C37.3066 38.0511 36.1388 40.2966 36.6471 40.8052C37.1506 41.3084 37.6309 41.0242 38.0241 39.9905C38.2461 39.4062 38.9074 38.7098 39.4934 38.4426C40.5906 37.9428 40.9702 36.8114 40.0303 36.8414C39.7399 36.8507 38.9987 37.1315 38.3839 37.4655ZM36.1211 47.2885C36.1224 48.8584 36.2851 50.4756 36.4834 50.8828C36.8238 51.5808 35.9105 51.6227 20.2769 51.6227H3.70979L2.47393 50.3868C0.870236 48.7831 0.870236 47.2746 2.47393 45.6709L3.70979 44.435L19.9146 44.4346H36.1194L36.1211 47.2885Z" fill="black"/> </svg>