<svg xmlns="http://www.w3.org/2000/svg" width="58" height="46" viewBox="0 0 58 46" fill="none"> <path fill-rule="evenodd" clip-rule="evenodd" d="M4.2649 0.328127C2.70205 0.821863 1.30172 2.03179 0.589146 3.50395L0.00188209 4.71723V22.8028C0.00188209 43.0472 -0.133243 41.5526 1.88639 43.6608C3.65258 45.5045 2.40648 45.428 29.473 45.3503C51.8629 45.2859 53.8045 45.2461 54.5541 44.8359C55.7537 44.1794 56.8277 43.0105 57.4519 41.6825C58.0001 40.516 58.0048 40.3599 57.9991 22.741C57.9937 5.42722 57.98 4.94614 57.4671 3.81295C56.8184 2.37954 55.8697 1.35435 54.5169 0.624213L53.4834 0.0666619L29.4555 0.0139559C9.29811 -0.0304829 5.24023 0.0201565 4.2649 0.328127ZM53.5002 3.06473C55.4661 3.98141 55.4193 3.59954 55.4377 18.8764C55.4475 27.0823 55.355 32.6317 55.2015 33.0356C54.9047 33.8161 53.5539 35.0167 52.753 35.212C52.4443 35.2875 41.5327 35.3164 28.5055 35.2766C4.88601 35.2045 4.81729 35.2027 4.08999 34.6604C3.68875 34.3615 3.14877 33.7551 2.88963 33.3128C2.4504 32.5625 2.41863 31.5949 2.41449 18.8697C2.41113 8.51468 2.48761 5.06034 2.73228 4.5232C2.90978 4.1341 3.47224 3.55355 3.98277 3.23318L4.91081 2.65031L22.738 2.52113C47.1294 2.34441 52.1451 2.43303 53.5002 3.06473ZM5.44589 5.51067C4.87232 6.0845 4.93587 7.0978 5.56654 7.43523C6.76846 8.07855 7.98122 6.85158 7.2485 5.73338C6.77621 5.0128 6.03548 4.92134 5.44589 5.51067ZM10.5173 5.41481C10.1187 5.81347 10.1187 6.72137 10.5173 7.12002C11.0046 7.6073 11.9681 7.48509 12.2835 6.89602C12.8573 5.8238 11.3622 4.56996 10.5173 5.41481ZM15.5438 5.57732C14.9085 6.2793 15.0062 7.13268 15.7611 7.47657C16.2939 7.71943 16.4959 7.68894 16.9237 7.30191C17.5813 6.70664 17.5906 5.71943 16.9418 5.37218C16.2499 5.00195 16.036 5.03347 15.5438 5.57732ZM20.3835 5.77497C20.1474 6.71568 20.5522 7.28382 21.5281 7.38123C22.2171 7.44995 22.3579 7.36082 22.5088 6.75986C22.745 5.81915 22.3401 5.25101 21.3643 5.15361C20.6752 5.08488 20.5344 5.17402 20.3835 5.77497ZM25.4379 5.50783C25.1992 5.79539 25.1733 6.10981 25.347 6.60588C25.7867 7.86153 27.5177 7.57397 27.5177 6.24494C27.5177 5.24533 26.0789 4.73531 25.4379 5.50783ZM30.7656 5.51067C29.7459 6.53069 30.7672 8.05659 32.0717 7.4621C32.8184 7.12209 32.8897 6.14521 32.2125 5.53237C31.6226 4.99859 31.2831 4.99342 30.7656 5.51067ZM35.8371 5.41481C35.2878 5.9641 35.4681 7.05285 36.1704 7.42877C36.7321 7.72925 36.8804 7.71297 37.3366 7.29984C37.9151 6.7764 37.827 5.97495 37.131 5.42773C36.615 5.0221 36.2334 5.01848 35.8371 5.41481ZM40.8419 5.51067C40.0616 6.29119 40.5106 7.43006 41.5986 7.43006C42.7222 7.43006 43.1341 6.29739 42.2887 5.53237C41.6989 4.99859 41.3594 4.99342 40.8419 5.51067ZM45.7508 5.51067C45.1615 6.1 45.2527 6.77665 45.9735 7.16239C47.0858 7.75767 47.8888 7.04458 47.564 5.75017C47.3736 4.99187 46.3985 4.86295 45.7508 5.51067ZM50.9165 5.6029C50.2409 6.34958 50.7639 7.67241 51.7394 7.68455C52.1231 7.6892 53.0959 6.76555 53.0959 6.3966C53.0959 6.01835 52.1192 5.10478 51.7149 5.10478C51.5237 5.10478 51.1646 5.32904 50.9165 5.6029ZM13.0186 10.5033C12.4987 10.9244 12.4499 11.0965 12.6718 11.7305C12.9777 12.6056 14.0456 12.856 14.6961 12.2054C15.2542 11.6473 15.226 11.157 14.5995 10.5304C13.96 9.89098 13.7784 9.88788 13.0186 10.5033ZM22.9819 10.4527C22.1368 11.2978 22.7767 12.7229 23.9247 12.5527C24.6731 12.4416 25.0498 11.8019 24.8457 10.9885C24.6483 10.2021 23.5487 9.88582 22.9819 10.4527ZM28.2282 10.2927C27.7089 10.5953 27.6213 11.8225 28.0861 12.2873C28.2567 12.4578 28.6403 12.5974 28.9387 12.5974C29.6852 12.5974 30.1014 12.114 30.1014 11.2474C30.1014 10.7017 29.9342 10.454 29.4387 10.2656C28.6592 9.96927 28.7886 9.96643 28.2282 10.2927ZM33.1956 10.5366C32.5794 11.1528 32.5481 11.6484 33.0909 12.1915C33.7319 12.8325 34.715 12.703 35.0664 11.9313C35.6397 10.6731 34.1613 9.57087 33.1956 10.5366ZM38.4267 10.416C37.4198 11.1211 37.818 12.5974 39.015 12.5974C39.3134 12.5974 39.6971 12.4578 39.8676 12.2873C40.3587 11.7962 40.2443 10.5842 39.6779 10.2811C39.0496 9.94498 39.108 9.93878 38.4267 10.416ZM48.6664 10.1866C48.0838 10.3413 47.9205 11.4376 48.382 12.0964C48.6724 12.5108 48.922 12.5986 49.4408 12.4684C50.6016 12.177 50.8331 11.3681 49.9955 10.5304C49.4692 10.0041 49.4103 9.9889 48.6664 10.1866ZM7.93368 10.5821C6.93019 11.5856 8.37988 13.1621 9.43116 12.2108C10.3181 11.4081 9.94014 10.2721 8.78629 10.2721C8.48788 10.2721 8.1042 10.4116 7.93368 10.5821ZM17.7265 10.8534C17.2335 12.1858 18.6344 13.1761 19.6193 12.1915C20.4654 11.3451 19.9368 10.2721 18.6734 10.2721C18.1505 10.2721 17.8802 10.4379 17.7265 10.8534ZM43.3297 10.5821C42.5838 11.328 43.2454 12.5974 44.3799 12.5974C44.985 12.5974 45.4472 11.4629 45.1039 10.8211C44.7809 10.2176 43.8231 10.0886 43.3297 10.5821ZM5.3074 15.6807C4.91366 16.4165 4.97799 16.8534 5.55776 17.3781C5.98561 17.7652 6.18765 17.7957 6.7204 17.5528C7.42961 17.2298 7.62003 16.0558 7.05524 15.491C6.58063 15.0164 5.60633 15.1221 5.3074 15.6807ZM10.6739 15.504C9.69134 16.2834 10.0373 17.5063 11.2408 17.5063C12.5212 17.5063 12.8775 16.0388 11.744 15.4321C11.1545 15.1167 11.163 15.1162 10.6739 15.504ZM15.5438 15.6536C14.7791 16.4984 15.179 17.5063 16.2789 17.5063C17.3668 17.5063 17.8159 16.3674 17.0356 15.5869C16.5031 15.0547 16.068 15.074 15.5438 15.6536ZM20.7599 15.4941C19.9805 16.1054 19.9316 16.9162 20.6455 17.3841C21.4751 17.9277 22.299 17.6719 22.5171 16.8033C22.8232 15.5838 21.7063 14.7519 20.7599 15.4941ZM25.6446 15.5406C24.7646 16.2088 25.3586 17.7647 26.4936 17.7647C27.472 17.7647 27.8908 15.9155 27.0181 15.4484C26.3812 15.1076 26.1988 15.12 25.6446 15.5406ZM30.7656 15.5869C29.9699 16.3829 30.4378 17.5063 31.565 17.5063C32.4329 17.5063 32.8297 16.6028 32.3099 15.8096C31.8337 15.0828 31.341 15.0118 30.7656 15.5869ZM35.9792 15.46C35.7221 15.6099 35.527 16.0297 35.527 16.4341C35.527 17.7127 36.6034 18.1997 37.4247 17.2921C37.9836 16.6746 37.9642 16.3263 37.3356 15.6977C36.7517 15.1138 36.6148 15.0898 35.9792 15.46ZM40.8419 15.5869C40.0616 16.3674 40.5106 17.5063 41.5986 17.5063C42.7222 17.5063 43.1341 16.3736 42.2887 15.6086C41.6989 15.0748 41.3594 15.0696 40.8419 15.5869ZM45.7508 15.5869C45.1568 16.1811 45.2545 16.9183 45.9908 17.4009C46.5892 17.7928 46.6843 17.7928 47.2826 17.4009C47.9748 16.9474 48.1394 16.0119 47.6185 15.491C47.1837 15.0562 46.2326 15.105 45.7508 15.5869ZM50.8987 15.6988C49.9474 16.7501 51.524 18.1997 52.5275 17.1963C52.9566 16.7671 52.915 16.0706 52.4316 15.5869C51.8888 15.0443 51.463 15.0756 50.8987 15.6988ZM8.28893 20.3297C7.22912 20.7268 7.26555 22.3155 8.34035 22.5852C9.22731 22.8079 9.81975 22.379 9.81975 21.5143C9.81975 20.6702 9.02372 20.0543 8.28893 20.3297ZM13.0661 20.5206C12.4765 20.9338 12.3615 21.8825 12.8426 22.3635C13.3937 22.9146 14.5809 22.739 14.8899 22.0602C15.4467 20.8384 14.1613 19.7535 13.0661 20.5206ZM18.3652 20.3297C17.3053 20.7268 17.3418 22.3155 18.4166 22.5852C19.3035 22.8079 19.896 22.379 19.896 21.5143C19.896 20.6702 19.1 20.0543 18.3652 20.3297ZM23.0788 20.5927C22.575 21.0004 22.5272 21.1758 22.7478 21.8068C22.9488 22.3816 23.1896 22.5622 23.8389 22.6253C24.5277 22.6919 24.7258 22.5878 24.9829 22.0238C25.5635 20.7493 24.1745 19.7052 23.0788 20.5927ZM28.4869 20.2853C27.9355 20.4082 27.6038 21.5665 27.958 22.1323C28.3032 22.6842 29.4216 22.7937 29.8193 22.3147C30.6086 21.3637 29.7198 20.0104 28.4869 20.2853ZM33.5475 20.3561C32.2975 20.8418 32.6191 22.6736 33.9544 22.6736C34.3582 22.6736 34.8282 22.5056 34.9984 22.3002C35.7575 21.3859 34.6649 19.922 33.5475 20.3561ZM38.3859 20.5206C37.7963 20.9338 37.6813 21.8825 38.1624 22.3635C39.0473 23.2484 40.791 22.0111 40.2042 20.9146C39.8428 20.2393 39.0367 20.0646 38.3859 20.5206ZM43.7154 20.2811C43.0511 20.4387 42.6869 21.5277 43.085 22.1654C43.4591 22.7648 44.6238 22.8436 45.0747 22.3002C45.7774 21.4538 44.8127 20.021 43.7154 20.2811ZM48.4621 20.5206C47.8725 20.9338 47.7575 21.8825 48.2386 22.3635C48.7897 22.9146 49.9769 22.739 50.2859 22.0602C50.8427 20.8384 49.5573 19.7535 48.4621 20.5206ZM5.36864 25.7639C4.66537 26.4191 4.86379 27.1885 5.83989 27.5928C6.77698 27.9809 7.36528 27.5861 7.36528 26.5692C7.36528 25.2707 6.34138 24.8578 5.36864 25.7639ZM10.3548 25.6631C9.58438 26.4338 9.90733 27.398 11.0284 27.6722C12.3559 27.9969 13.0746 26.4413 11.9582 25.6595C11.2333 25.1516 10.8659 25.1523 10.3548 25.6631ZM15.4263 25.5673C14.9351 26.0584 15.0496 27.2704 15.6159 27.5735C15.8908 27.7205 16.2313 27.8409 16.3727 27.8409C16.7971 27.8409 17.4415 27.0619 17.4415 26.5491C17.4415 25.5319 16.1102 24.8834 15.4263 25.5673ZM20.7357 25.5363C20.1913 25.8533 20.1481 26.7818 20.646 27.4626C21.1865 28.2018 22.4484 27.7145 22.5628 26.7224C22.7057 25.4856 21.8151 24.9077 20.7357 25.5363ZM25.5025 25.5673C25.0677 26.0021 25.1165 26.9531 25.5983 27.435C26.1089 27.9455 26.3455 27.9437 27.1392 27.4236C27.9306 26.9051 27.9559 26.1876 27.2018 25.6595C26.5142 25.1779 25.9239 25.1459 25.5025 25.5673ZM30.4879 25.775C30.0988 26.2049 30.0699 26.4033 30.3166 26.9449C30.6923 27.7693 31.2529 27.9876 32.0557 27.622C32.506 27.4166 32.685 27.1281 32.685 26.6062C32.685 25.2616 31.3945 24.7733 30.4879 25.775ZM35.9792 25.5363C35.7221 25.6861 35.527 26.106 35.527 26.5103C35.527 27.789 36.6034 28.276 37.4247 27.3683C37.9616 26.7751 37.9691 26.1861 37.4464 25.6631C36.9793 25.1963 36.6171 25.1647 35.9792 25.5363ZM40.7073 25.6293C39.9415 26.5519 40.9519 28.2938 41.9043 27.6931C42.7055 27.1877 42.8948 26.6354 42.5119 25.9199C42.1164 25.1808 41.2018 25.0335 40.7073 25.6293ZM45.9154 25.5773C45.4201 25.8158 45.3516 25.9925 45.4958 26.6578C45.7591 27.8724 46.7176 28.2398 47.5227 27.435C47.9944 26.963 48.0363 26.4579 47.6611 25.7569C47.3648 25.2032 46.8106 25.1464 45.9154 25.5773ZM50.9643 25.5363C50.4047 25.8621 50.3861 26.5124 50.9145 27.2665C51.4454 28.0248 52.2081 27.9946 52.7321 27.195C53.124 26.5966 53.124 26.5015 52.7321 25.9031C52.2848 25.2205 51.7108 25.1014 50.9643 25.5363ZM7.61718 31.0872C7.23506 32.0925 7.71562 32.8002 8.71291 32.7002C9.7518 32.5963 10.1502 31.976 9.74663 31.0906C9.31594 30.1452 7.97605 30.1432 7.61718 31.0872ZM12.8426 30.7346C12.444 31.1332 12.444 32.0411 12.8426 32.4398C13.0131 32.6103 13.4808 32.7498 13.8815 32.7498C14.8039 32.7498 15.326 31.8163 14.8754 30.9738C14.5468 30.3599 13.3573 30.2199 12.8426 30.7346ZM17.7162 31.0059C17.2743 32.145 18.7248 33.249 19.6518 32.4796C20.1052 32.1034 20.1394 31.1588 19.7151 30.7346C19.1733 30.1928 17.9681 30.3563 17.7162 31.0059ZM22.8496 30.9738C22.3843 31.8432 22.9209 32.7498 23.9006 32.7498C24.4773 32.7498 24.7612 32.5865 24.9661 32.1365C25.3759 31.2371 24.8703 30.4245 23.9006 30.4245C23.3932 30.4245 23.0467 30.6056 22.8496 30.9738ZM28.0861 30.7346C27.9156 30.9051 27.7761 31.2888 27.7761 31.5872C27.7761 31.8856 27.9156 32.2693 28.0861 32.4398C28.2567 32.6103 28.6403 32.7498 28.9387 32.7498C29.2372 32.7498 29.6208 32.6103 29.7913 32.4398C29.9619 32.2693 30.1014 31.8856 30.1014 31.5872C30.1014 31.2888 29.9619 30.9051 29.7913 30.7346C29.6208 30.564 29.2372 30.4245 28.9387 30.4245C28.6403 30.4245 28.2567 30.564 28.0861 30.7346ZM32.9258 30.9738C32.4752 31.8163 32.9974 32.7498 33.9198 32.7498C34.7855 32.7498 35.2687 32.3333 35.2687 31.5872C35.2687 30.8446 34.7863 30.4245 33.9342 30.4245C33.4702 30.4245 33.117 30.617 32.9258 30.9738ZM38.0546 31.0906C37.6598 31.9566 38.042 32.5912 39.0284 32.7074C40.2115 32.8467 40.8499 31.6505 40.0301 30.8304C39.3891 30.1894 38.406 30.3189 38.0546 31.0906ZM43.0449 31.0059C42.7238 31.8685 43.0971 32.6077 43.9027 32.7038C44.7571 32.8059 45.3449 32.3589 45.3449 31.6073C45.3449 30.8413 44.8687 30.4245 43.9931 30.4245C43.4707 30.4245 43.1994 30.5907 43.0449 31.0059ZM48.2386 30.7346C48.0681 30.9051 47.9286 31.2888 47.9286 31.5872C47.9286 32.3333 48.4117 32.7498 49.2775 32.7498C50.1998 32.7498 50.722 31.8163 50.2714 30.9738C49.9428 30.3599 48.7533 30.2199 48.2386 30.7346ZM3.94479 37.4006C5.26865 37.9037 5.91689 37.9168 29.0062 37.9057C53.053 37.8944 52.8946 37.8995 54.969 37.0201C55.3736 36.8485 55.4211 37.01 55.4211 38.5602C55.4211 40.585 54.9667 41.5482 53.6126 42.3917L52.7083 42.9552L30.8765 43.0387C18.869 43.0844 8.06829 43.0436 6.8749 42.9475C4.82194 42.7826 4.64831 42.7204 3.65154 41.7905C2.62428 40.8325 2.59561 40.7589 2.49898 38.8457C2.44446 37.7665 2.44162 36.8837 2.49278 36.8839C2.54367 36.8839 3.19708 37.1164 3.94479 37.4006Z" fill="black"/> </svg>