<svg xmlns="http://www.w3.org/2000/svg" width="59" height="43" viewBox="0 0 59 43" fill="none"> <path fill-rule="evenodd" clip-rule="evenodd" d="M7.21318 0.291302C6.06795 0.596364 5.27677 1.25603 4.81667 2.28965C4.68988 2.57425 4.62726 4.84565 4.57577 11.0245L4.50618 19.3748L3.67116 19.4602C2.46942 19.5831 1.74142 19.9316 1.0272 20.726C-0.341263 22.2481 -0.342515 24.2936 1.02414 25.8138C1.75311 26.6244 2.66022 27.0614 3.74492 27.1242L4.50618 27.1683L4.57577 34.6139L4.64535 42.0595H8.05502H11.4647L11.5007 34.6552L11.5366 27.2508L13.8666 27.2096C15.148 27.1868 16.306 27.1913 16.44 27.2194C16.6652 27.2666 16.6836 27.5741 16.6836 31.2928V35.3151L19.7801 35.2776L22.8767 35.2402L22.9135 31.239L22.9506 27.2379L29.0022 27.2146C32.3308 27.202 35.1637 27.1863 35.2976 27.1799C35.5235 27.1691 35.5438 27.464 35.578 31.2417L35.6149 35.3151L38.7094 35.2776L41.8038 35.2402L41.8407 31.239L41.8777 27.2379H44.3806H46.8836V34.5274C46.8836 40.5415 46.917 41.8445 47.0749 41.9755C47.2092 42.0869 48.2547 42.1231 50.589 42.0968L53.9117 42.0595L53.9478 34.6139L53.9842 27.1683L54.7667 27.1407C56.8369 27.0678 58.4486 25.3752 58.4609 23.2612C58.4731 21.1197 56.7726 19.4443 54.5863 19.4443H53.9896L53.9506 11.0593C53.9121 2.76561 53.9083 2.66819 53.6108 2.11764C52.9338 0.86552 51.8292 0.202233 50.4324 0.209053C48.6514 0.217821 47.2947 1.38699 46.9658 3.19621L46.8709 3.71809H29.2027H11.5343V3.39494C11.5343 2.77341 11.0967 1.79601 10.5871 1.27913C9.68527 0.364645 8.37651 -0.0184908 7.21318 0.291302ZM9.0828 2.19947C9.6758 2.66597 9.86424 3.18145 9.86424 4.3374V5.38814H29.2785H48.6928V4.3651C48.6928 3.80243 48.761 3.14652 48.8442 2.90757C49.168 1.97902 50.7351 1.57431 51.5438 2.2106C52.3158 2.8178 52.3112 2.76366 52.3112 11.2833V19.1358L51.9981 19.2021C51.8258 19.2384 51.1526 19.2491 50.502 19.2257C49.8514 19.2023 49.1799 19.1794 49.0097 19.1746C48.706 19.1661 48.6994 19.1275 48.6617 17.1132L48.6232 15.0605H29.2785H9.93382L9.89541 17.0984L9.857 19.1362L8.22537 19.195C7.328 19.2272 6.51552 19.2272 6.41977 19.195C6.28339 19.1489 6.24581 17.4272 6.24581 11.2114C6.24581 2.59569 6.22549 2.83019 7.02725 2.19947C7.53313 1.80158 8.57691 1.80158 9.0828 2.19947ZM9.86424 10.2591V13.3208H29.2785H48.6928V10.2591V7.19735H29.2785H9.86424V10.2591ZM46.8836 10.2591V11.6508H29.2089H11.5343V10.2591V8.8674H29.2089H46.8836V10.2591ZM46.8836 18.1228V19.4455L29.2437 19.4101L11.6039 19.3748L11.5638 18.0874L11.5238 16.8001H29.2036H46.8836V18.1228ZM55.7184 21.4534C57.1483 22.2915 57.0776 24.5007 55.5983 25.2028C55.1643 25.4086 52.8353 25.4287 29.2878 25.4287C1.21619 25.4287 2.87371 25.4757 2.23367 24.662C1.35425 23.5439 1.68895 21.9604 2.93481 21.3465C3.35218 21.1407 5.68634 21.1205 29.2663 21.1176L55.1397 21.1144L55.7184 21.4534ZM9.86424 33.7789V40.3199H8.05502H6.24581V33.7789V27.2379H8.05502H9.86424V33.7789ZM21.2441 30.404L21.2066 33.5701H19.8149H18.4232L18.3858 30.404L18.3483 27.2379H19.8149H21.2815L21.2441 30.404ZM40.2034 30.3666V33.4953L39.8898 33.5739C39.7173 33.6173 39.0754 33.6342 38.4633 33.6115L37.3504 33.5701L37.3129 30.404L37.2755 27.2379H38.7394H40.2034V30.3666ZM52.3112 33.7789V40.3199H50.502H48.6928V33.7789V27.2379H50.502H52.3112V33.7789Z" fill="black"/> </svg>