<?xml version="1.0" encoding="UTF-8"?> <svg xmlns="http://www.w3.org/2000/svg" width="26" height="23" viewBox="0 0 26 23" fill="none"> <path d="M25.9394 20.9942C25.9394 21.5875 25.7302 22.0401 25.3119 22.352C24.8935 22.6638 24.3801 22.8198 23.7715 22.8198H2.70889C2.10037 22.8198 1.58692 22.66 1.16856 22.3405C0.750197 22.0211 0.541016 21.5723 0.541016 20.9942C0.541016 20.5378 0.677934 20.0738 0.951771 19.6022L11.4717 1.25509C11.9737 0.418362 12.567 0 13.2516 0C13.9362 0 14.5143 0.418362 14.9859 1.25509L25.5287 19.625C25.8025 20.1118 25.9394 20.5682 25.9394 20.9942ZM14.8262 9.33328V6.0016H11.6542V9.33328C11.6542 9.54626 11.6695 9.74784 11.6999 9.938C11.7303 10.1282 11.7721 10.3412 11.8254 10.577C11.8786 10.8128 11.9205 11.0143 11.9509 11.1817L12.5442 14.8785H13.8906L14.5067 11.1817C14.5371 11.0295 14.5828 10.8318 14.6436 10.5884C14.7045 10.345 14.7501 10.1282 14.7805 9.938C14.811 9.74784 14.8262 9.54626 14.8262 9.33328ZM14.8262 18.1645C14.8262 17.7233 14.6703 17.3506 14.3584 17.0464C14.0465 16.7421 13.67 16.59 13.2288 16.59C12.8028 16.59 12.4339 16.7421 12.122 17.0464C11.8102 17.3506 11.6542 17.7233 11.6542 18.1645C11.6542 18.6057 11.8102 18.9822 12.122 19.2941C12.4339 19.606 12.8028 19.7619 13.2288 19.7619C13.67 19.7619 14.0465 19.606 14.3584 19.2941C14.6703 18.9822 14.8262 18.6057 14.8262 18.1645Z" fill="#CAB440"></path> </svg> 