<svg xmlns="http://www.w3.org/2000/svg" width="24" height="36" viewBox="0 0 24 36" fill="none"> <path fill-rule="evenodd" clip-rule="evenodd" d="M21.5068 17.8664C21.2131 17.4067 21.1164 17.3982 18.758 17.6256C16.8247 17.812 16.613 17.8196 16.492 17.7068C16.3927 17.6143 16.3196 17.3153 16.2062 16.5382C16.0331 15.3514 15.6604 13.3988 15.4823 12.7452C15.176 11.6212 15.0806 11.29 14.8168 10.4367C14.151 8.28305 13.2196 6.04815 12.1378 4.00854C11.4137 2.6431 11.0068 1.99179 10.8327 1.91916C10.73 1.87628 9.05072 2.0177 5.92318 2.33248C1.63471 2.7642 1.16322 2.82409 1.10231 2.94486C1.04945 3.04981 1.16181 3.24227 1.62227 3.83594C4.76326 7.8854 6.64399 12.2824 7.53889 17.6686C7.71957 18.756 7.86113 18.6762 5.31733 18.9214C3.02003 19.1429 2.88311 19.1805 2.69825 19.6419C2.48878 20.1645 2.53985 20.2672 4.05434 22.3662C4.6887 23.2456 5.44225 24.3012 5.72885 24.7121C6.01545 25.123 6.60922 25.9539 7.04832 26.5587C7.48742 27.1634 8.07954 27.9887 8.36422 28.3926C8.6489 28.7966 9.18828 29.5564 9.56287 30.081C10.6862 31.6545 11.622 32.9673 12.256 33.8587C12.9528 34.8387 13.2508 35.0578 13.7345 34.9464C13.8997 34.9083 14.1157 34.8037 14.2146 34.7138C14.3136 34.624 14.8628 33.5157 15.4351 32.251C16.0073 30.9863 16.611 29.6588 16.7766 29.3011C17.5286 27.6765 18.5158 25.5195 18.9705 24.5073C19.9526 22.3213 20.7198 20.6359 21.1758 19.6628C21.6775 18.5921 21.7431 18.2362 21.5068 17.8664Z" fill="url(#paint0_linear)"/> <defs> <linearGradient id="paint0_linear" x1="13.2501" y1="33.7762" x2="7.63046" y2="2.38525" gradientUnits="userSpaceOnUse"> <stop stop-color="#FBD826"/> <stop offset="1" stop-color="#F8E068"/> </linearGradient> </defs> </svg>